<svg id="Capa_1" enable-background="new 0 0 512 512" height="512" viewBox="0 0 512 512" width="512" xmlns="http://www.w3.org/2000/svg"><g><circle cx="256" cy="256" fill="#b46d3c" r="256"/><path d="m48.228 294.926 216.895 216.895c137.157-4.807 246.877-117.491 246.877-255.821 0-7.036-.296-14.003-.853-20.896l-124.462-124.462z" fill="#8e562f"/><g><g><path d="m359.132 193.302-42.715-12.391-55.106-55.106 15.162-15.162c30.434-30.434 79.778-30.434 110.213 0z" fill="#ebf3ff"/><path d="m386.685 220.855-15.162 15.162-55.106-55.106 70.268-70.268c30.435 30.434 30.435 79.778 0 110.212z" fill="#d7e8ff"/></g><path d="m43.758 248.008 4.47 46.918 46.918 4.469 90.628-58.03 82.733-68.035-33.894-20.828z" fill="#fff"/><path d="m95.146 299.395 4.472 46.921 46.921 4.473 85.979-75.134 62.328-73.173-33.904-23.651z" fill="#ebf3ff"/><path d="m197.933 402.182-46.921-4.472-4.473-46.921 148.307-148.307 23.651 33.904-47.118 77.369z" fill="#d7e8ff"/><path d="m249.32 453.569-46.918-4.469-4.469-46.918 126.065-173.361 20.828 33.894z" fill="#ebf3ff"/><path d="m289.72 207.608-55.107-55.106 26.698-26.698 57.293 57.293 5.962 32.66z" fill="#00dc80"/><path d="m291.655 202.935h77.932v37.756h-77.932z" fill="#00cb76" transform="matrix(.707 .707 -.707 .707 253.682 -168.817)"/></g></g></svg>