<svg id="Capa_1" enable-background="new 0 0 512 512" height="512" viewBox="0 0 512 512" width="512" xmlns="http://www.w3.org/2000/svg"><g><circle cx="256" cy="256" fill="#ffd944" r="256"/><path d="m304.655 507.362c102.359-19.697 183.01-100.348 202.707-202.707l-225.888-225.888-56.655 56.655-88.511 196.626 94.322 94.322-.104 6.863z" fill="#fc0"/><g><g><path d="m28.193 223.933 54.057 54.058 39.845-9.633 9.632-39.844-69.204-38.912z" fill="#ebf3ff"/><path d="m82.25 277.991 54.058 54.057 34.331-34.33-38.912-69.204z" fill="#d7e8ff"/><path d="m281.474 78.767c-39.384-39.384-103.239-39.384-142.624 0-17.771 17.771-27.52 40.523-29.254 63.762l-30.289 30.289 37.273 70.842 147.639-39.524z" fill="#ff6426"/><path d="m281.474 221.39c39.384-39.384 39.384-103.239 0-142.624l-164.893 164.894 54.058 54.058 47.074-47.074c23.238-1.734 45.99-11.483 63.761-29.254z" fill="#ff4c04"/><path d="m158.422 164.618 10.742 10.742c2.757 2.757 5.882 4.921 9.215 6.502l26.013-18.07 18.07-26.013c-1.581-3.333-3.744-6.458-6.502-9.215l-48.007-48.007c-12.435-12.435-32.597-12.435-45.032 0l-31.6 31.6c-15.794 15.794-25.465 36.686-27.286 58.948l-1.513 18.498 53.126 53.126c4.415-3.195 8.638-6.774 12.615-10.751 18.729-18.729 28.777-42.846 30.159-67.36z" fill="#ff7037"/><path d="m178.379 181.862c12.285 5.827 27.416 3.663 37.582-6.502 10.165-10.165 12.329-25.296 6.502-37.582z" fill="#ff6426"/></g><g><path d="m483.807 288.067-54.057-54.058-39.845 9.633-9.632 39.844 69.204 38.912z" fill="#d7e8ff"/><path d="m429.75 234.009-54.058-54.057-34.331 34.33 38.912 69.204z" fill="#ebf3ff"/><path d="m230.526 433.233c39.384 39.384 103.239 39.384 142.624 0 17.771-17.771 27.52-40.523 29.254-63.762l30.289-30.289-37.273-70.842-147.64 39.524z" fill="#ff4c04"/><path d="m230.526 290.61c-39.384 39.384-39.384 103.239 0 142.624l164.893-164.894-54.058-54.058-47.074 47.074c-23.238 1.734-45.99 11.483-63.761 29.254z" fill="#ff6426"/><path d="m353.578 347.382-10.742-10.742c-2.757-2.757-5.882-4.921-9.215-6.502l-26.013 18.07-18.07 26.013c1.581 3.333 3.744 6.458 6.502 9.215l48.007 48.007c12.435 12.435 32.597 12.435 45.032 0l31.6-31.6c15.794-15.794 25.465-36.686 27.286-58.948l1.513-18.498-53.126-53.126c-4.415 3.195-8.638 6.774-12.615 10.751-18.729 18.729-28.777 42.846-30.159 67.36z" fill="#ff6426"/><path d="m333.621 330.138c-12.285-5.827-27.417-3.663-37.582 6.502-10.165 10.165-12.329 25.296-6.502 37.582z" fill="#ff7037"/></g></g></g></svg>