<svg id="Capa_1" enable-background="new 0 0 512 512" height="512" viewBox="0 0 512 512" width="512" xmlns="http://www.w3.org/2000/svg"><g><circle cx="256" cy="256" fill="#ed755b" r="256"/><path d="m359.857 117.803-81.326-81.325-11.657 11.657 10.992 10.992-11.563 11.563-17.741-17.741-11.657 11.657 10.894 10.894-10.894 10.894 6.607 6.606-9.949 9.948 31.711 31.711-27.992 27.992-39.814-39.814-6.749 6.749-23.22-23.22-11.657 11.657 11.061 11.061-11.061 11.061 6.439 6.439-9.781 9.781 42.218 42.218-40.967 40.967 71.092 71.092-91.695 91.695 31.832 31.832-8.287 8.287 67.588 67.588c10.394 1.285 20.978 1.956 31.719 1.956 141.385 0 256-114.615 256-256 0-3.049-.073-6.081-.179-9.105l-140.528-140.528z" fill="#e64d2e"/><g><g><path d="m175.048 188.36c-.021 0-.042-.002-.063-.002-16.568 0-30 13.432-30 30s13.432 30 30 30c.021 0 .042-.002.063-.002 16.539-.034 29.937-13.451 29.937-29.998-.001-16.547-13.398-29.964-29.937-29.998z" fill="#fd3"/><g fill="#fff"><path d="m182.468 122.837h15v50h-15z"/><path d="m152.5 106.367h15v50h-15z"/></g></g><g><path d="m256 123.99c-16.569 0-30 13.432-30 30s13.431 30 30 30l12.706-30z" fill="#fd3"/><path d="m286 153.99c0-16.547-13.461-29.964-30-29.998v59.997c16.539-.035 30-13.452 30-29.999z" fill="#f3bd44"/><path d="m233.563 52.948h15v50h-15z" fill="#fff"/><path d="m263.532 36.478h15v50h-15z" fill="#dde1ea"/></g><g><path d="m348.873 188.866c-.021 0-.042-.002-.063-.002-16.568 0-30 13.432-30 30s13.432 30 30 30c.021 0 .042-.002.063-.002 16.539-.034 29.937-13.451 29.937-29.998s-13.397-29.964-29.937-29.998z" fill="#f3bd44"/><g fill="#dde1ea"><path d="m326.326 122.837h15v50h-15z"/><path d="m356.294 106.367h15v50h-15z"/></g></g></g><g><path d="m242.002 338.414c-8.83 0-15.989-7.158-15.989-15.989s7.158-15.989 15.989-15.989h13.998l9.34-17.181-9.34-17.182h-65.304v.033c-15.893-.615-30.038 8.959-35.971 22.719 0 0-72.831 72.831-72.831 72.831l74.8 74.8 41.948-41.948 57.358-.135 10.532-30.564-10.532-31.395z" fill="#fdcdbf"/><g fill="#fcbeac"><path d="m305.398 306.436c9.109 0 16.494-7.385 16.494-16.494.662-9.564-6.829-17.912-16.494-17.868h-49.398v34.363h49.398z"/><path d="m425.275 301.338c6.441-6.441 6.441-16.885 0-23.326-6.295-7.233-17.495-7.835-24.298-.972l-61.374 61.374h-83.603v61.959l78.615-.187c8.044 0 90.66-98.848 90.66-98.848z"/></g></g></g></svg>