<svg id="Capa_1" enable-background="new 0 0 512 512" height="512" viewBox="0 0 512 512" width="512" xmlns="http://www.w3.org/2000/svg"><g><circle cx="256" cy="256" fill="#00aa8e" r="256"/><g><path d="m511.167 276.67-173.288-173.288-234.497 234.497 173.288 173.288c124.898-9.98 224.517-109.599 234.497-234.497z" fill="#008475"/></g><g><g><g><path d="m171.501 171.501-68.119 68.119c-27.133 27.133-27.134 71.126 0 98.259l69.505-55.363 47.743-61.886-22.667-36.81z" fill="#fff"/><path d="m103.382 337.879c27.134 27.134 71.126 27.133 98.26 0l68.119-68.119-14.776-28.918-34.354-20.212z" fill="#e3eaee"/></g><g><path d="m239.62 103.382-68.119 68.119 49.13 49.13 64.105-49.963 53.143-67.286c-27.133-27.134-71.126-27.134-98.259 0z" fill="#ca2e43"/><path d="m269.761 269.76 68.119-68.119c27.133-27.133 27.134-71.126 0-98.259l-117.249 117.248z" fill="#ad2638"/></g></g><g><g><path d="m242.239 242.24 68.119-68.119c27.134-27.133 71.126-27.134 98.259 0l-55.363 69.505-61.886 47.743-36.81-22.667z" fill="#fcd0a2"/><path d="m408.618 174.121c27.134 27.134 27.133 71.126 0 98.26l-68.119 68.119-28.918-14.776-20.212-34.354z" fill="#ffba84"/></g><g><path d="m174.121 310.359 68.119-68.119 49.13 49.13-49.963 64.105-67.286 53.143c-27.134-27.134-27.134-71.126 0-98.259z" fill="#ff8759"/><path d="m340.499 340.499-68.119 68.119c-27.133 27.133-71.126 27.134-98.259 0l117.248-117.248z" fill="#ff5b5b"/></g></g></g></g></svg>