<svg id="Capa_1" enable-background="new 0 0 512 512" height="512" viewBox="0 0 512 512" width="512" xmlns="http://www.w3.org/2000/svg"><g><g><g><g><g><g><circle cx="256" cy="256" fill="#ffce00" r="256"/></g></g></g></g></g><path d="m512 256c0-3.236-.06-6.457-.179-9.664l-170.442-170.441-104.536-20.14-45.009 41.354 68.61 68.61-188.429 209.122 131.845 131.845c16.834 3.483 34.273 5.314 52.14 5.314 141.385 0 256-114.615 256-256z" fill="#ffa300"/><g><path d="m450.757 323.829-51.698-136.837c-9.232-24.435-32.625-40.604-58.746-40.604h-168.625c-26.121 0-49.514 16.169-58.746 40.604l-51.699 136.837c-6.2 16.409-3.027 34.889 8.291 48.29 20.341 24.087 57.921 22.58 76.269-3.058l42.662-59.613h135.07l42.662 59.613c18.347 25.638 55.927 27.145 76.269 3.058 11.318-13.401 14.49-31.881 8.291-48.29z" fill="#555a66"/></g><g><path d="m450.757 323.829-51.698-136.837c-9.232-24.435-32.625-40.604-58.746-40.604h-84.192v163.06h67.415l42.662 59.613c18.347 25.638 55.927 27.145 76.269 3.058 11.317-13.401 14.489-31.881 8.29-48.29z" fill="#333940"/></g><g><g><ellipse cx="327.75" cy="193.358" fill="#fff" rx="17.267" ry="17.267" transform="matrix(.16 -.987 .987 .16 84.389 485.904)"/></g><g><ellipse cx="327.75" cy="259.168" fill="#fff" rx="17.267" ry="17.267" transform="matrix(.924 -.383 .383 .924 -74.231 145.153)"/></g></g><g><g><ellipse cx="360.655" cy="226.263" fill="#fff" rx="17.267" ry="17.267" transform="matrix(.23 -.973 .973 .23 57.583 525.285)"/></g><g><circle cx="294.845" cy="226.263" fill="#fff" r="17.267"/></g></g><g><path d="m216.328 210.042-24.177-.001v-24.176h-32.441v24.173l-24.194-.001-.007 32.439 24.201.001v24.184h32.441v-24.182l24.171.002z" fill="#ff7d81"/></g><g><path d="m209.226 114.5 21.213 21.213c7.37-7.37 17.156-10.878 26.832-10.541v-29.986c-17.36-.33-34.827 6.096-48.045 19.314z" fill="#2fddd0"/></g><g><path d="m302.774 114.5c-12.864-12.865-29.754-19.31-46.654-19.341v29.986c9.217.031 18.424 3.552 25.441 10.568z" fill="#11bfae"/></g><g><path d="m256 40.529c-32.252 0-62.573 12.56-85.379 35.365l21.213 21.213c17.14-17.14 39.928-26.579 64.166-26.579.425 0 .846.025 1.271.031v-30.014c-.424-.005-.847-.016-1.271-.016z" fill="#2fddd0"/></g><g><path d="m341.379 75.895c-22.776-22.777-53.051-35.333-85.258-35.364v30.001c24.194.031 46.934 9.464 64.045 26.575z" fill="#11bfae"/></g></g></svg>