<svg id="Capa_1" enable-background="new 0 0 512 512" height="512" viewBox="0 0 512 512" width="512" xmlns="http://www.w3.org/2000/svg"><g><g><g><g><g><g><g><g><path d="m18.817 159.488c38.103-93.548 129.943-159.488 237.183-159.488 141.385 0 256 114.615 256 256s-114.615 256-256 256c-115.645 0-213.38-76.681-245.133-181.972z" fill="#7584f2"/></g></g></g></g></g></g></g><path d="m507.015 306.525-68.435-69.416-427.713 92.919 171.105 171.105c23.435 7.068 48.288 10.867 74.028 10.867 124.089 0 227.557-88.288 251.015-205.475z" fill="#4253ce"/><g><path d="m367.667 311.205c-7.558 0-14.248 3.712-18.349 9.412h-19.773c-4.1-5.7-10.791-9.412-18.349-9.412-12.475 0-22.588 10.113-22.588 22.588s10.113 22.588 22.588 22.588c9.551 0 17.718-5.928 21.022-14.306h14.428c3.303 8.378 11.47 14.306 21.021 14.306 12.475 0 22.588-10.113 22.588-22.588s-10.113-22.588-22.588-22.588z" fill="#23272b"/></g><g><path d="m167.385 311.205c-7.558 0-14.248 3.712-18.348 9.412h-19.774c-4.1-5.7-10.791-9.412-18.348-9.412-12.475 0-22.588 10.113-22.588 22.588s10.113 22.588 22.588 22.588c9.551 0 17.718-5.928 21.022-14.306h14.427c3.303 8.378 11.47 14.306 21.021 14.306 12.475 0 22.588-10.113 22.588-22.588s-10.113-22.588-22.588-22.588z" fill="#414952"/></g><g><path d="m18.817 159.488c-2.946 7.233-5.572 14.632-7.858 22.178l-10.717 63.09c-.161 3.727-.242 7.476-.242 11.244 0 4.981.142 9.929.423 14.84l7.433 11.847-4.973 11.859c1.831 12.127 4.514 23.976 7.984 35.482h245.625l10-85.271-10-85.27h-237.675z" fill="#fff"/></g><g><path d="m434.889 233.539-68.466-60.297c-10.066-8.865-23.018-13.755-36.431-13.755h-74.348v170.541h142.814c30.443 0 55.122-24.679 55.122-55.122 0-15.833-6.809-30.902-18.691-41.367z" fill="#e9edf5"/></g><g><path d="m321.173 244.758h123.432c-2.692-4.121-5.949-7.901-9.716-11.219l-58.902-51.874h-54.814z" fill="#65b1fc"/></g><g><path d="m10.959 181.665c-6.089 20.097-9.773 41.24-10.717 63.093h256.249l10-30.237-10-32.856z" fill="#a3d4ff"/></g><g><path d="m255.644 181.665h30.197v63.093h-30.197z" fill="#65b1fc"/></g><g><path d="m.423 270.828c.458 8.01 1.283 15.922 2.461 23.718h253.608l2.449-11.859-2.449-11.859z" fill="#e9edf5"/></g><g><path d="m396.279 270.828h-140.635v23.718h167.176z" fill="#cdd2e1"/></g></g></svg>