<svg id="Capa_1" enable-background="new 0 0 512 512" height="512" viewBox="0 0 512 512" width="512" xmlns="http://www.w3.org/2000/svg"><g><g><g><g><g><g><g><circle cx="256" cy="256" fill="#ffce00" r="256"/></g></g></g></g></g></g><path d="m510.226 286.295-101.524-101.524-100.584 76.672-97.063-97.062-147.81 166.587 180.755 180.755c3.977.184 7.978.277 12 .277 131.135 0 239.24-98.599 254.226-225.705z" fill="#ffa300"/><g><path d="m120.138 164.38h90.917v26.541h-90.917z" fill="#606aea"/></g><g><path d="m67.386 184.771v142.458h188.741l10-51.215-10-91.243z" fill="#7584f2"/></g><g><path d="m444.614 272.239-6.667-16.239-28.398-32.185 6.321-21.586-7.168-17.458h-152.702v142.458h188.614z" fill="#606aea"/></g><g><path d="m83.997 202.216h67.112v53.784h-67.112z" fill="#fff"/></g><g><path d="m169.274 202.216h66.607v53.784h-66.607z" fill="#fff"/></g><g><path d="m252.533 202.216v53.784h3.594l4.31-22.07-4.31-31.714z" fill="#fff"/></g><g><path d="m256 202.216h62.131v53.784h-62.131z" fill="#e9edf5"/></g><g><path d="m415.865 202.216h-36.528v53.784h58.61z" fill="#e9edf5"/></g><g><path d="m63.245 305.556v25.412h192.882l1.521-13.25-1.521-12.162z" fill="#606aea"/></g><g><path d="m256 305.535h192.755v25.412h-192.755z" fill="#4855b7"/></g><g><path d="m302.606 202.216h76.731v128.753h-76.731z" fill="#23272b"/></g><g><g><g><ellipse cx="180.085" cy="336.425" fill="#636978" rx="25.245" ry="25.245" transform="matrix(.227 -.974 .974 .227 -188.467 435.33)"/></g><g><circle cx="180.085" cy="336.425" fill="#414952" r="13.262"/></g></g><g><g><ellipse cx="109.242" cy="336.425" fill="#636978" rx="25.245" ry="25.245" transform="matrix(.227 -.974 .974 .227 -243.208 366.34)"/></g><g><circle cx="109.242" cy="336.425" fill="#414952" r="13.262"/></g></g><g><g><ellipse cx="410.463" cy="336.425" fill="#414952" rx="25.245" ry="25.245" transform="matrix(.707 -.707 .707 .707 -117.667 388.778)"/></g><g><circle cx="410.463" cy="336.425" fill="#23272b" r="13.262"/></g></g></g><g><g><path d="m312.736 213.51h24.282v104.753h-24.282z" fill="#555a66"/></g><g><path d="m344.925 213.51h24.282v104.753h-24.282z" fill="#555a66"/></g></g></g></svg>