<svg id="Capa_1" enable-background="new 0 0 512 512" height="512" viewBox="0 0 512 512" width="512" xmlns="http://www.w3.org/2000/svg"><g><circle cx="256" cy="256" fill="#00ed89" r="256"/><path d="m79.107 338.947 173.004 173.004c1.296.019 2.589.049 3.889.049 141.385 0 256-114.615 256-256 0-30.319-5.285-59.4-14.959-86.39l-64.148-64.148z" fill="#00dc80"/><g><g><path d="m256 338.947h-176.893v-233.485h176.893l53.171 106.741z" fill="#fff"/><path d="m256 105.462h176.893v233.484h-176.893z" fill="#ebf3ff"/></g><g><g><path d="m256 318.714h-156.66v-193.019h156.66l10.001 6.804-10.001 6.683h-143.173v166.045h143.173z" fill="#ff6426"/></g><g><path d="m412.66 318.714h-156.66v-13.487h143.174v-166.045h-143.174v-13.487h156.66z" fill="#ff4c04"/></g></g><g><g><path d="m181.546 302.13v-113.608h74.454l10.001 7.837-10.001 5.65h-60.967v100.121z" fill="#ff6426"/></g><g><path d="m330.454 302.13h-13.487v-100.121h-60.967v-13.487h74.454z" fill="#ff4c04"/></g></g><g><path d="m271.266 395.647-13.051-6.411-.685-22.267 13.736-6.748-14.157-6.955-1.109-36.058h-7.5v35.512h-43.751l-3.165-25.989-14.89 1.813 16.469 134.482h15.11l-3.07-24.454h33.297v24.454h7.5l.787-24.841 14.479-7.113-14.048-6.901.675-21.955zm-22.766-27.926v20.426h-39.437l-2.487-20.426zm-35.123 55.852-2.487-20.426h37.61v20.426z" fill="#606074"/><path d="m313.276 325.977-3.165 25.989h-46.611v-35.512h-7.5v146.574h7.5v-25.209h36.157l-3.07 25.209h15.111l16.469-135.237zm-49.776 40.989h44.785l-2.487 20.426h-42.298zm0 55.852v-20.426h40.471l-2.487 20.426z" fill="#525264"/></g><g><path d="m256 330.464h-88.446v-38.335h88.446l26.586 19.167z" fill="#b46d3c"/><path d="m256 292.129h88.446v38.336h-88.446z" fill="#8e562f"/></g></g></g></svg>