<svg id="Capa_1" enable-background="new 0 0 512 512" height="512" viewBox="0 0 512 512" width="512" xmlns="http://www.w3.org/2000/svg"><g><circle cx="256" cy="256" fill="#ce9489" r="256"/><path d="m370.293 92.706-48.76-48.76-57.301 57.301-3.178-3.178h-106.123l-18.931 18.931 160 160-160 160 70.13 70.13c16.132 3.185 32.803 4.87 49.87 4.87 141.385 0 256-114.615 256-256 0-12.032-.85-23.865-2.456-35.455l-133.544-133.545z" fill="#aa675e"/><path d="m255.936 64.628h80v25h-80z" fill="#9bc933" transform="matrix(.819 -.574 .574 .819 9.281 183.69)"/><path d="m151 102v90l16 70-16 70v90h105l16-160-16-160z" fill="#fff"/><path d="m361 102h-105v320h105v-90l-20-70 20-70z" fill="#e9edf5"/><path d="m136 407v30h120l9-15-9-15z" fill="#c3e54d"/><path d="m256 407h120v30h-120z" fill="#a9d939"/><path d="m136 87v30h120l9-15-9-15z" fill="#c3e54d"/><path d="m256 87h120v30h-120z" fill="#a9d939"/><path d="m151 192v140h105l23-70-23-70z" fill="#c3e54d"/><path d="m256 192h105v140h-105z" fill="#a9d939"/><path d="m213.254 259.254-22.254-22.254v50l22.224-22.224c14.346 16.99 33.607 20.998 42.776 21.938l11-24.714-11-24.792c-22.641 1.847-37.28 15.829-42.746 22.046z" fill="#fff"/><path d="m311 262c-18.375-24.5-46.887-25-50-25-1.709 0-3.373.075-5 .208v49.506c2.569.264 4.345.286 5 .286 30.625 0 48.132-22.509 50-25z" fill="#e9edf5"/></g></svg>