<svg id="Capa_1" enable-background="new 0 0 512 512" height="512" viewBox="0 0 512 512" width="512" xmlns="http://www.w3.org/2000/svg"><g><circle cx="256" cy="256" fill="#ff7037" r="256"/><path d="m445.326 167.083-38.047-38.047-32.819 126.85h-92.89l-126.85-126.85-120.001 154.538 44.518 44.518-24.516 24.516 155.259 155.259c14.929 2.71 30.308 4.133 46.02 4.133 141.385 0 256-114.615 256-256 0-15.712-1.423-31.09-4.133-46.021l-50.587-50.587z" fill="#ff4c04"/><g><g><path d="m256 283.575h-221.281v-55.15h221.281l66.514 27.575z" fill="#7974d6"/><path d="m256 228.425h221.281v55.149h-221.281z" fill="#6c67d2"/></g><g><path d="m407.279 352.608h50v-193.216h-50l-11.087 96.608z" fill="#525264"/><path d="m357.279 129.036h50v253.928h-50z" fill="#454553"/></g><g><path d="m104.721 159.392h-50v193.216h50l11.087-96.608z" fill="#606074"/><g><path d="m104.721 129.036h50v253.928h-50z" fill="#525264" transform="matrix(-1 0 0 -1 259.441 512)"/></g></g></g></g></svg>