<svg id="Capa_1" enable-background="new 0 0 512 512" height="512" viewBox="0 0 512 512" width="512" xmlns="http://www.w3.org/2000/svg"><g><g><g><g><g><g><circle cx="256" cy="256" fill="#ffce00" r="256"/></g></g></g></g></g><path d="m512 256c0-26.55-4.042-52.156-11.544-76.237l-65.456-65.456-358 283.386 102.763 102.763c24.081 7.502 49.687 11.544 76.237 11.544 141.385 0 256-114.615 256-256z" fill="#ffa300"/><g><path d="m77 114.307h358v283.386h-358z" fill="#555a66"/></g><g><path d="m77.021 256.001h358v141.692h-358z" fill="#333940"/></g><g><path d="m228.109 202.305 80.407 53.696-80.406 53.694z" fill="#fff"/></g><g><path d="m308.516 256.001h-80.406v53.694z" fill="#e9edf5"/></g><g><g><path d="m107.232 138.584h45.937v45.937h-45.937z" fill="#7e8596"/></g><g><path d="m191.098 138.584h45.937v45.937h-45.937z" fill="#7e8596"/></g><g><path d="m274.965 138.584h45.937v45.937h-45.937z" fill="#7e8596"/></g><g><path d="m358.831 138.584h45.937v45.937h-45.937z" fill="#7e8596"/></g></g><g><g><path d="m107.232 327.48h45.937v45.937h-45.937z" fill="#636978"/></g><g><path d="m191.098 327.48h45.937v45.937h-45.937z" fill="#636978"/></g><g><path d="m274.965 327.48h45.937v45.937h-45.937z" fill="#636978"/></g><g><path d="m358.831 327.48h45.937v45.937h-45.937z" fill="#636978"/></g></g></g></svg>