<svg id="Capa_1" enable-background="new 0 0 512 512" height="512" viewBox="0 0 512 512" width="512" xmlns="http://www.w3.org/2000/svg"><g><circle cx="256" cy="256" fill="#c3e54d" r="256"/><path d="m282.591 257.979-129.665-129.666-50.298 50.298 58.676 58.676-38.607 38.607 103.103 103.104-45.925 45.925 86.838 86.838c136.414-5.619 245.287-117.966 245.287-255.761 0-18.449-1.969-36.435-5.677-53.777l-83.988-83.988z" fill="#9bc933"/><path d="m256 177.745c-5.919-.464-14.62-.463-24.702 2.043-11.387 2.83-19.837 7.689-25.021 11.234-11.5-13.893-21.051-25.342-27.83-33.447-24.003-28.696-29.675-35.086-40.489-40.085-3.738-1.728-28.677-13.263-44.936-2.043-18.609 12.843-15.239 48.844-9.191 67.404 6.818 20.926 14.297 32.169 14.297 32.17 3.065 5.454 6.165 10.281 7.809 18.128 1.756 8.381-.088 10.957 1.383 18.128 1.963 9.567 7.472 15.835 12.404 21.447 9.449 10.751 20.369 16.309 27.574 19.149-.539 5.685-.736 14.033 1.383 23.745 1.23 5.637 2.479 8.247 3.723 12.766 3.78 13.73 1.965 24.939 1.532 30.383-1.145 14.391 4.101 29.552 9.093 40.352l92.971 54.37 17.771-147.196z" fill="#333940"/><path d="m256 177.745c5.919-.464 14.62-.463 24.702 2.043 11.387 2.83 19.837 7.689 25.021 11.234 11.5-13.893 21.051-25.342 27.83-33.447 24.003-28.696 29.675-35.086 40.489-40.085 3.738-1.728 28.677-13.263 44.936-2.043 18.609 12.843 15.239 48.844 9.191 67.404-6.818 20.926-14.297 32.169-14.297 32.17-3.065 5.454-6.165 10.281-7.809 18.128-1.756 8.381.088 10.957-1.383 18.128-1.963 9.567-7.472 15.835-12.404 21.447-9.449 10.751-20.369 16.309-27.574 19.149.539 5.685.736 14.033-1.383 23.745-1.23 5.637-2.479 8.247-3.723 12.766-3.78 13.73-1.965 24.939-1.532 30.383 1.145 14.391-4.101 29.552-9.093 40.352l-92.971 54.37z" fill="#101214"/><path d="m239.748 178.186c-3.715 11.803-7.045 24.965-9.472 39.389-7.156 42.529-3.7 79.576 1.532 106.723-9.869 4.358-25.781 12.879-40.851 28.766-16.531 17.427-24.31 35.558-27.928 46.054 3.771 8.16 7.398 13.835 8.013 14.797 23.451 36.657 76.806 39.285 84.957 39.574l16.008-132.598-16.007-144.806c-4.205 0-9.84.415-16.252 2.101z" fill="#fff"/><path d="m340.958 413.915c.615-.961 4.242-6.637 8.013-14.797-3.618-10.497-11.397-28.628-27.928-46.054-15.07-15.887-30.982-24.408-40.851-28.766 5.232-27.148 8.688-64.195 1.532-106.723-2.427-14.424-5.756-27.586-9.472-39.389-4.066-1.069-9.622-2.1-16.252-2.1v277.404c8.152-.29 61.507-2.918 84.958-39.575z" fill="#e9edf5"/><path d="m169.34 251.447c21.207-21.838 20.368-50.918 20.017-57.485-8.309-10.038-15.21-18.311-20.108-24.167-17.343-20.734-21.441-25.351-29.255-28.963-2.701-1.248-20.72-9.583-32.468-1.476-13.446 9.279-11.011 35.292-6.641 48.702 4.927 15.119 10.33 23.244 10.33 23.244 2.214 3.941 4.455 7.429 5.642 13.098 1.268 6.056-.064 7.917.999 13.098 1.418 6.912 5.399 11.441 8.963 15.496 6.827 7.768 14.717 11.784 19.923 13.836 6.406-2.729 14.828-7.382 22.598-15.383z" fill="#555a65"/><path d="m342.66 251.447c-21.207-21.838-20.368-50.918-20.017-57.485 8.309-10.038 15.21-18.311 20.108-24.167 17.343-20.734 21.441-25.351 29.255-28.963 2.701-1.248 20.72-9.583 32.468-1.476 13.446 9.279 11.011 35.292 6.641 48.702-4.927 15.119-10.33 23.244-10.33 23.244-2.214 3.941-4.455 7.429-5.642 13.098-1.268 6.056.064 7.917-.999 13.098-1.418 6.912-5.399 11.441-8.963 15.496-6.827 7.768-14.717 11.784-19.923 13.836-6.406-2.729-14.828-7.382-22.598-15.383z" fill="#333940"/><path d="m256 375.617c-10.636-3.717-18.507-12.791-20.682-23.846-1.421-7.221 4.106-13.941 11.465-13.941h9.217l9.128 16.851z" fill="#333940"/><path d="m256 375.617c10.636-3.717 18.507-12.791 20.682-23.846 1.421-7.221-4.106-13.941-11.465-13.941h-9.217z" fill="#101214"/><path d="m167.905 299.151c.325 1.476 3.409 14.415 15.396 18.774 11.979 4.356 22.649-3.567 23.849-4.49-.326-1.478-3.407-14.406-15.384-18.769-11.983-4.366-22.663 3.563-23.861 4.485z" fill="#555a65"/><path d="m344.095 299.151c-.325 1.476-3.409 14.415-15.396 18.774-11.979 4.356-22.649-3.567-23.849-4.49.326-1.478 3.407-14.406 15.384-18.769 11.983-4.366 22.663 3.563 23.861 4.485z" fill="#333940"/></g></svg>