<svg id="Capa_1" enable-background="new 0 0 512 512" height="512" viewBox="0 0 512 512" width="512" xmlns="http://www.w3.org/2000/svg"><g><circle cx="256" cy="256" fill="#b46d3c" r="256"/><path d="m49 383 109.939 109.938c29.935 12.277 62.703 19.062 97.061 19.062 141.385 0 256-114.615 256-256 0-34.358-6.785-67.126-19.061-97.062l-29.939-29.938z" fill="#8e562f"/><g><path d="m49 129h199.5l7.5 10.001v233.998l-7.5 10.001h-199.5v-47.875l10.001-7.067-10.001-7.933v-15.103l10.001-7.332-10.001-7.668v-68.044l10.001-7.184-10.001-7.816v-15.103l10.001-7.995-10.001-7.005z" fill="#00dc80"/><path d="m463 383h-199.5l-7.5-10.001v-233.998l7.5-10.001h199.5v47.875l-10.001 7.067 10.001 7.933v15.103l-10.001 7.332 10.001 7.668v68.044l-10.001 7.184 10.001 7.816v15.103l-10.001 7.995 10.001 7.005z" fill="#00cb76"/><path d="m303.5 256c0 27.346-21.309 49.593-47.5 49.593v15c34.462 0 62.5-28.976 62.5-64.593s-28.038-64.593-62.5-64.593v15c26.191 0 47.5 22.247 47.5 49.593z" fill="#ebf3ff"/><path d="m256 305.593c-26.191 0-47.5-22.247-47.5-49.593s21.309-49.593 47.5-49.593v-15c-34.462 0-62.5 28.976-62.5 64.593s28.038 64.593 62.5 64.593z" fill="#fff"/><g><path d="m256 383h-7.5v-254h7.5l3.75 5.001v121.999 122z" fill="#fff"/></g><g><path d="m81.497 305.022h-32.497v-15h17.497v-68.044h-17.497v-15h32.497z" fill="#fff"/></g><g><path d="m134.5 335.125h-85.5v-15h70.5v-128.25h-70.5v-15h85.5z" fill="#fff"/></g><g><path d="m132.001 288.075v-15c8.918 0 16.173-7.66 16.173-17.075s-7.255-17.075-16.173-17.075v-15c17.189 0 31.173 14.389 31.173 32.075s-13.984 32.075-31.173 32.075z" fill="#fff"/></g><g><g><path d="m463 305.022h-32.497v-98.044h32.497v15h-17.497v68.044h17.497z" fill="#ebf3ff"/></g></g><g><g><path d="m463 335.125h-85.5v-158.25h85.5v15h-70.5v128.25h70.5z" fill="#ebf3ff"/></g></g><g><g><path d="m381.338 288.075c-17.189 0-31.174-14.389-31.174-32.075s13.984-32.075 31.174-32.075v15c-8.918 0-16.174 7.66-16.174 17.075s7.255 17.075 16.174 17.075z" fill="#ebf3ff"/></g></g><g><g><path d="m256 129h7.5v254h-7.5z" fill="#ebf3ff"/></g></g></g></g></svg>