<svg id="Capa_1" enable-background="new 0 0 512 512" height="512" viewBox="0 0 512 512" width="512" xmlns="http://www.w3.org/2000/svg"><g><circle cx="256" cy="256" fill="#00ed89" r="256"/><path d="m332.785 128.854 10.323 42.637h-49.157l-59.34-59.34-54.493 11.091-46.012 19.572 41.027 41.027-28.316 52.652-45.69-5.263-48.991 29.979-17.513 50.931 18.514 58.142 131.679 131.679c22.599 6.529 46.481 10.039 71.184 10.039 141.385 0 256-114.615 256-256 0-17.297-1.726-34.19-4.996-50.525l-81.78-81.78z" fill="#00dc80"/><path d="m237.475 288.221-38.028-108.354h70.214l5.576-11.53-5.576-9.074h-77.446l-10.866-30.959-19.442 6.823 11.839 33.731-74.534 148.974h138.542l31.907-33.563 5.576-21.07-5.576-8.835zm-54.23-92.298 35.554 101.304h-86.238z" fill="#ff6426"/><circle cx="233.333" cy="307.53" fill="#fc0" r="22.665"/><g><path d="m225.607 307.53h15.453v48.178h-15.453z" fill="#8e562f"/></g><g><path d="m210.105 353.716h46.456v15.453h-46.456z" fill="#8e562f"/></g><circle cx="115.887" cy="307.53" fill="#525264" r="22.665"/><path d="m405.936 308.577-61.341-174.78c-.057-.161-.229-.653.171-1.217.401-.565.923-.565 1.094-.565h50.355l5.152-10.561-5.152-10.044h-50.355c-7.103 0-13.796 3.46-17.904 9.255-4.107 5.795-5.155 13.255-2.802 19.957l6.543 18.642h-62.035v20.605h69.266l.419 1.195-69.686 73.302v29.905l77.351-81.366 39.482 112.496z" fill="#ff4c04"/><circle cx="396.215" cy="307.53" fill="#454553" r="22.665"/><g><path d="m396.215 192.284v-20.605c10.936 0 19.833-8.897 19.833-19.833 0-10.935-8.897-19.832-19.833-19.832v-20.605c22.297 0 40.438 18.14 40.438 40.437s-18.141 40.438-40.438 40.438z" fill="#7974d6"/></g><path d="m180.908 142.813h-46.802l-5.713-18.89c-2.285-7.556 3.37-15.175 11.264-15.175h86.739c6.416 0 11.617 5.201 11.617 11.617 0 6.416-5.201 11.617-11.617 11.617h-29.596z" fill="#918edd"/><g><path d="m115.887 378.868c-39.336 0-71.338-32.002-71.338-71.338s32.002-71.337 71.338-71.337 71.338 32.001 71.338 71.337-32.003 71.338-71.338 71.338zm0-126.119c-30.207 0-54.782 24.575-54.782 54.781 0 30.207 24.575 54.782 54.782 54.782s54.782-24.575 54.782-54.782c0-30.206-24.575-54.781-54.782-54.781z" fill="#ebf3ff"/></g><g><path d="m396.215 378.868c-39.336 0-71.338-32.002-71.338-71.338s32.002-71.337 71.338-71.337 71.338 32.001 71.338 71.337-32.002 71.338-71.338 71.338zm0-126.119c-30.207 0-54.782 24.575-54.782 54.781 0 30.207 24.575 54.782 54.782 54.782s54.782-24.575 54.782-54.782c0-30.206-24.575-54.781-54.782-54.781z" fill="#d7e8ff"/></g><g><path d="m115.887 396.315c-48.956 0-88.785-39.829-88.785-88.785s39.829-88.784 88.785-88.784 88.785 39.828 88.785 88.784-39.829 88.785-88.785 88.785zm0-156.965c-37.595 0-68.181 30.585-68.181 68.18s30.586 68.181 68.181 68.181 68.181-30.586 68.181-68.181-30.586-68.18-68.181-68.18z" fill="#525264"/></g><g><path d="m396.215 396.315c-48.956 0-88.785-39.829-88.785-88.785s39.828-88.784 88.785-88.784 88.785 39.828 88.785 88.784-39.829 88.785-88.785 88.785zm0-156.965c-37.594 0-68.18 30.585-68.18 68.18s30.586 68.181 68.18 68.181c37.595 0 68.181-30.586 68.181-68.181s-30.586-68.18-68.181-68.18z" fill="#454553"/></g></g></svg>