<svg id="Capa_1" enable-background="new 0 0 512 512" height="512" viewBox="0 0 512 512" width="512" xmlns="http://www.w3.org/2000/svg"><g><circle cx="256" cy="256" fill="#918edd" r="256"/><path d="m73.9 332.162 91.791 91.791-30.57 30.57 46.482 46.482c23.544 7.141 48.519 10.995 74.397 10.995 141.385 0 256-114.615 256-256 0-18.419-1.962-36.377-5.658-53.693l-118.802-118.801z" fill="#7974d6"/><g><path d="m124.46 83.506-50.56 248.656h109.107v-153.206z" fill="#ebf3ff"/><path d="m156.299 256.359 99.701 12.038 8.726-51.609-8.726-48.858-63.192-104.217-15.067-1.687-53.281 21.48z" fill="#fff"/><path d="m156.299 280.433-21.179 174.09h120.88l5.677-85.517-5.677-100.611z" fill="#fff"/><path d="m202.975 57.477 53.025 114.39 9.329-64.623-9.329-49.767z" fill="#ebf3ff"/><path d="m309.025 57.477-53.025 114.39v-114.39z" fill="#d7e8ff"/><path d="m387.54 83.506 50.56 248.656h-109.107v-153.206z" fill="#d7e8ff"/><path d="m355.701 256.359-99.701 12.038v-96.53l63.317-108.144 14.942-1.697 53.281 21.48z" fill="#ebf3ff"/><path d="m355.701 280.433 21.179 174.09h-120.88v-186.128z" fill="#ebf3ff"/><path d="m264.726 268.395-8.726-12.036h-99.701v24.074h70.985l-30.945 99.829 22.994 7.128 33.155-106.957h3.512z" fill="#525264"/><path d="m177.741 62.026 78.259 133.664 5.677-22.369-5.677-25.279-53.025-90.565z" fill="#525264"/><path d="m355.701 256.359h-36.283l-49.469-84.493 64.31-109.84-25.234-4.549-53.025 90.566v-.001.001 47.647l35.521 60.669h-35.521v24.074h2.484l33.155 106.957 22.994-7.128-30.945-99.829h72.013z" fill="#454553"/></g></g></svg>