<svg id="Capa_1" enable-background="new 0 0 512 512" height="512" viewBox="0 0 512 512" width="512" xmlns="http://www.w3.org/2000/svg"><g><circle cx="256" cy="256" fill="#ed755b" r="256"/><path d="m386.46 116.2 9.077 9.077-9.077 9.077 9.039 9.039-4.309 4.309-24.864-24.864-.717.717-87.076-87.076-9.833 9.833 8.535 8.535-8.535 8.535 8.64 8.64-4.852 4.852-23.924-23.924-9.833 9.833 9.042 9.042-9.042 9.042 8.459 8.459-13.625 13.625 36.713 36.713-35.516 35.516 25.856 25.856-4.977 4.977-83.173-83.173-6.748 6.748-23.22-23.221-9.833 9.833 8.812 8.812-8.812 8.812 8.687 8.687-13.854 13.856 42.209 42.209-40.967 40.967 82.234 82.234-71.962 71.962 118.246 118.246c140.804-.682 254.74-115.022 254.74-255.985 0-12.405-.901-24.598-2.606-36.532l-113.102-113.101z" fill="#e64d2e"/><g><path d="m248.184 462.636v-334.549h7.815l3.909 167.274-3.909 167.275z" fill="#fff"/><path d="m255.999 128.087h7.817v334.55h-7.817z" fill="#dde1ea"/><path d="m240.368 142.042v-65.173h15.63l7.817 32.587-7.817 32.586z" fill="#9ec9f3"/><path d="m255.998 76.869h15.634v65.173h-15.634z" fill="#62a0d3"/><path d="m256.002 442.457c-91.449 0-165.583-74.622-165.583-166.673 16.369 15.732 94.997 16.164 110.388 0 0 0 .01.007.011.008-.01-.009 55.184 166.665 55.184 166.665z" fill="#9ec9f3"/><path d="m269.145 355.189-13.143 87.267s-62.295-33.603-55.183-166.665c.242.175 17.385 12.528 55.183 12.528z" fill="#c3ddf7"/><path d="m255.998 442.457c91.449 0 165.583-74.622 165.583-166.673-16.369 15.732-94.996 16.164-110.388 0 0 0-.01.007-.011.008.01-.009-55.184 166.665-55.184 166.665z" fill="#62a0d3"/><path d="m255.998 442.457s62.295-33.603 55.183-166.665c-.242.175-17.385 12.528-55.183 12.528z" fill="#9ec9f3"/></g><g><g><path d="m150.048 188.36c-.021 0-.042-.002-.063-.002-16.568 0-30 13.432-30 30s13.432 30 30 30c.021 0 .042-.002.063-.002 16.539-.034 29.937-13.451 29.937-29.998-.001-16.547-13.398-29.964-29.937-29.998z" fill="#fd3"/><g fill="#fff"><path d="m157.468 122.837h15v50h-15z"/><path d="m127.5 106.367h15v50h-15z"/></g></g><g><path d="m256 123.99c-16.569 0-30 13.432-30 30s13.431 30 30 30l12.706-30z" fill="#fd3"/><path d="m286 153.99c0-16.547-13.461-29.964-30-29.998v59.997c16.539-.035 30-13.452 30-29.999z" fill="#f3bd44"/><path d="m233.563 52.948h15v50h-15z" fill="#fff"/><path d="m263.532 36.478h15v50h-15z" fill="#dde1ea"/></g><g><path d="m373.873 188.866c-.021 0-.042-.002-.063-.002-16.568 0-30 13.432-30 30s13.432 30 30 30c.021 0 .042-.002.063-.002 16.539-.034 29.937-13.451 29.937-29.998s-13.397-29.964-29.937-29.998z" fill="#f3bd44"/><g fill="#dde1ea"><path d="m351.326 122.837h15v50h-15z"/><path d="m381.294 106.367h15v50h-15z"/></g></g></g></g></svg>