<svg id="Capa_1" enable-background="new 0 0 512 512" height="512" viewBox="0 0 512 512" width="512" xmlns="http://www.w3.org/2000/svg"><g><circle cx="256" cy="256" fill="#fb7c82" r="256"/><path d="m316.624 296.624-79.534-79.534-145.642 145.643 148.769 148.769c5.222.317 10.481.498 15.783.498 141.385 0 256-114.615 256-256 0-9.558-.541-18.988-1.562-28.274l-62.458-62.458z" fill="#fa455c"/><path d="m64.021 165.268 51.856 122.699h140.123l32.833-61.349-32.833-61.35z" fill="#a9d939"/><path d="m447.98 165.268h-191.98v122.699h140.123z" fill="#9bc933"/><path d="m118.872 209.872 19.59 54.851h117.538l18.391-38.105-18.391-38.105c-57.798.058-105.368 11.22-137.128 21.359z" fill="#fddf55"/><path d="m393.128 209.872c-31.882-10.178-78.885-21.418-137.128-21.359v76.21h117.538c6.53-18.284 13.06-36.567 19.59-54.851z" fill="#fcbe50"/><path d="m152.16 247.336c-3.303-46.241-41.78-82.067-88.138-82.067l27.426 197.464h164.552l23.903-61.613-23.903-53.784z" fill="#c3e54d"/><path d="m420.553 362.732 27.426-197.464c-46.359 0-84.836 35.827-88.138 82.067h-103.841v115.396h164.553z" fill="#a9d939"/><path d="m217.128 287.951c.089-.892.126-1.799.101-2.719-.306-11.454-9.799-20.722-21.257-20.769-11.834-.048-21.442 9.53-21.442 21.353 0 4.491 1.386 8.657 3.755 12.095 1.471 2.136 2.197 4.628 2.192 7.122-.005 2.507-.75 5.016-2.223 7.167-2.451 3.578-3.841 7.941-3.716 12.635.306 11.454 9.799 20.722 21.257 20.769 11.834.048 21.442-9.53 21.442-21.353 0-.721-.038-1.433-.108-2.135h38.825l8.568-17.082-8.568-17.082h-38.826z" fill="#fff"/><path d="m294.671 324.251c0 11.822 9.608 21.401 21.442 21.353 11.458-.046 20.951-9.315 21.257-20.769.125-4.694-1.265-9.056-3.716-12.635-1.473-2.151-2.218-4.66-2.223-7.167-.005-2.494.721-4.987 2.192-7.122 2.368-3.438 3.755-7.605 3.755-12.095 0-11.823-9.608-21.401-21.442-21.353-11.458.046-20.951 9.315-21.257 20.769-.025.921.013 1.828.101 2.719h-38.826v34.165h38.825c-.069.703-.108 1.414-.108 2.135z" fill="#e9edf5"/></g></svg>