<svg id="Capa_1" enable-background="new 0 0 512 512" height="512" viewBox="0 0 512 512" width="512" xmlns="http://www.w3.org/2000/svg"><g><circle cx="256" cy="256" fill="#66d58a" r="256"/><path d="m332.648 107.575-105.068 105.069-24.671-24.671-57.993 57.993-17.167-17.167-29.029 29.028 14.025 14.025-14.025 14.024 12.741 12.741-12.741 12.742 15.83 15.83-30.213 30.213 10.979 10.979-9.84 9.84 130.69 130.69c12.982 2.027 26.283 3.089 39.834 3.089 131.491 0 239.807-99.141 254.326-226.747z" fill="#50af71"/><g><path d="m96 227.092v105.723h20v-85.723h130v136.723h10l5.681-71.861-5.681-84.862z" fill="#fff"/><path d="m266 247.092h130v85.723h20v-105.723h-160v156.723h10z" fill="#eaedf4"/><path d="m106 328.717c-15.998 0-29.014 13.015-29.014 29.014 0 15.998 13.015 29.014 29.014 29.014s29.014-13.015 29.014-29.014c0-15.998-13.016-29.014-29.014-29.014zm0 42.202c-7.272 0-13.188-5.916-13.188-13.188s5.916-13.188 13.188-13.188 13.188 5.916 13.188 13.188-5.916 13.188-13.188 13.188z" fill="#4f4f4f"/><path d="m242.812 407.071c0-7.272 5.916-13.188 13.188-13.188l5.681-7.6-5.681-8.225c-15.998 0-29.014 13.015-29.014 29.014s13.015 29.014 29.014 29.014l5.681-7.249-5.681-8.578c-7.272 0-13.188-5.916-13.188-13.188z" fill="#4f4f4f"/><g fill="#2b2b2b"><path d="m269.188 407.071c0-7.272-5.916-13.188-13.188-13.188v-15.826c15.998 0 29.014 13.015 29.014 29.014s-13.016 29.014-29.014 29.014v-15.826c7.272 0 13.188-5.916 13.188-13.188z"/><path d="m376.986 357.731c0 15.998 13.015 29.014 29.014 29.014s29.014-13.015 29.014-29.014c0-15.998-13.015-29.014-29.014-29.014s-29.014 13.016-29.014 29.014zm15.826 0c0-7.272 5.916-13.188 13.188-13.188s13.188 5.916 13.188 13.188-5.916 13.188-13.188 13.188-13.188-5.916-13.188-13.188z"/></g></g><g><path d="m147.389 184.526c0 59.984 48.627 108.611 108.611 108.611l15.564-113.408-15.564-103.814c-59.985 0-108.611 48.627-108.611 108.611z" fill="#f2a73b"/><path d="m364.611 184.526c0-59.985-48.627-108.611-108.611-108.611v217.223c59.984 0 108.611-48.627 108.611-108.612z" fill="#ee8934"/><path d="m170.662 184.526c0 47.131 38.207 85.338 85.338 85.338l9.406-85.338-9.406-85.337c-47.131 0-85.338 38.207-85.338 85.337z" fill="#fd3"/><path d="m341.338 184.526c0-47.131-38.207-85.338-85.338-85.338v170.675c47.131.001 85.338-38.206 85.338-85.337z" fill="#f3bd44"/><path d="m237.711 233.222v-45.554h18.289l3.894-8.046-3.894-7.038h-18.289v-36.753h18.289l3.894-8.294-3.894-6.706h-7.5v-11.304h-15v11.304h-10.789v127.391h10.789v11.305h15v-11.305h7.5l3.894-7.324-3.894-7.676z" fill="#4f4f4f"/><path d="m263.5 259.527h15v-12.468c16.526-4.164 28.789-19.047 28.789-36.722 0-14.168-7.938-26.531-19.643-32.988 5.819-6.018 9.407-14.177 9.407-23.157 0-12.998-7.559-24.275-18.553-29.779v-14.886h-15v11.309h.005c-.061 0-.121-.005-.182-.005h-7.323v15h7.323c10.328 0 18.729 8.237 18.729 18.361 0 9.628-7.507 17.55-17.049 18.392h-9.003v15.084h7.323c.762 0 1.516-.034 2.266-.084h3.517c12.783 0 23.183 10.207 23.183 22.753 0 12.619-10.4 22.886-23.183 22.886h-13.106v15h7.5z" fill="#2b2b2b"/></g></g></svg>