<svg id="Capa_1" enable-background="new 0 0 512 512" height="512" viewBox="0 0 512 512" width="512" xmlns="http://www.w3.org/2000/svg"><g><circle cx="256" cy="256" fill="#fb7c82" r="256"/><path d="m269.861 259.572-98.162-98.163-37.608 37.608 16.133 16.133-70.18 70.18-4-4-25.85 25.85 24.791 24.791-12.203 12.203 166.434 166.434c8.803.916 17.738 1.392 26.784 1.392 141.385 0 256-114.615 256-256 0-14.777-1.269-29.255-3.672-43.347l-95.774-95.774z" fill="#fa455c"/><path d="m256 180.538-28.459-10.784c-3.21.205-6.466.482-9.86.869-11.921 1.359-22.439 3.643-31.319 6.128-6.729-7.356-16.368-17.439-28.596-28.766-27.472-25.448-41.208-38.171-51.574-35.234-19.101 5.413-21.762 51.988-22.468 64.34-.917 16.048.731 29.588 2.553 39.319-1.275 3.774-25.056 78.468 25.872 138.383 3.884 4.569 8.029 8.818 12.401 12.797l131.45 32.65 14.106-111.014z" fill="#e9edf5"/><path d="m256 180.538 28.459-10.784c3.21.205 6.466.482 9.86.869 11.921 1.359 22.439 3.643 31.319 6.128 6.729-7.356 16.368-17.439 28.596-28.766 27.472-25.448 41.208-38.171 51.574-35.234 19.101 5.413 21.762 51.988 22.468 64.34.917 16.048-.731 29.588-2.553 39.319 1.275 3.774 25.056 78.468-25.872 138.383-3.884 4.569-8.029 8.818-12.401 12.797l-131.45 32.65z" fill="#cdd2e1"/><path d="m227.541 169.755c1.554 15.309 3.125 36.63 3.076 62.146-.081 42.23-.323 63.563-10.213 74.213-19.409 20.902-50.136 4.062-76.596 28.255-11.332 10.362-16.582 23.404-19.258 33.223 12.384 9.429 32.959 23.041 61.124 32.64 25.339 8.636 49.393 11.492 70.326 11.432l16.66-122.435-16.66-122.435c-7.199 0-17.133-.254-28.459 2.961z" fill="#fff"/><path d="m326.325 400.231c28.166-9.599 48.741-23.211 61.124-32.64-2.676-9.818-7.926-22.861-19.258-33.223-26.459-24.194-57.187-7.353-76.596-28.255-9.89-10.65-10.132-31.983-10.213-74.213-.049-25.515 1.522-46.837 3.076-62.146-6.926-1.966-16.686-2.961-28.459-2.961v244.87c35.185-.099 61.543-8.439 70.326-11.432z" fill="#e9edf5"/><path d="m143.863 203.815c14.186-7.145 21.319-18.396 23.952-23.106-4.486-4.903-10.91-11.624-19.061-19.174-18.312-16.962-27.468-25.443-34.377-23.485-12.732 3.608-14.506 34.653-14.976 42.886-.611 10.697.487 19.722 1.702 26.208 4.227 1.303 23.056 6.595 42.76-3.329z" fill="#fff"/><path d="m368.137 203.815c-14.186-7.145-21.319-18.396-23.952-23.106 4.486-4.903 10.91-11.624 19.061-19.174 18.312-16.962 27.468-25.443 34.377-23.485 12.732 3.608 14.506 34.653 14.976 42.886.611 10.697-.487 19.722-1.702 26.208-4.226 1.303-23.056 6.595-42.76-3.329z" fill="#e9edf5"/><path d="m115.917 304.848c-9.326 2.607-18.592 5.811-27.537 9.521-11.52 4.776-22.762 10.497-33.416 17.003l7.816 12.803c9.994-6.104 20.541-11.47 31.346-15.95 8.392-3.479 17.082-6.484 25.83-8.931z" fill="#555a65"/><path d="m73.774 279.515c-11.444 3.371-22.242 8.524-32.095 15.317l8.514 12.35c8.543-5.89 17.902-10.357 27.819-13.278 11.394-3.356 23.205-4.592 35.102-3.683l1.148-14.955c-13.721-1.059-27.343.377-40.488 4.249z" fill="#555a65"/><path d="m396.083 304.848c9.326 2.607 18.592 5.811 27.537 9.521 11.52 4.776 22.762 10.497 33.416 17.003l-7.816 12.803c-9.994-6.104-20.541-11.47-31.346-15.95-8.392-3.479-17.082-6.484-25.83-8.931z" fill="#333940"/><path d="m438.226 279.515c11.444 3.371 22.242 8.524 32.095 15.317l-8.514 12.35c-8.543-5.89-17.902-10.357-27.819-13.278-11.394-3.356-23.205-4.592-35.102-3.683l-1.148-14.955c13.721-1.059 27.343.377 40.488 4.249z" fill="#333940"/><path d="m146.605 259.035c.498 2.259 5.217 22.06 23.561 28.73 18.332 6.666 34.661-5.458 36.498-6.871-.499-2.262-5.214-22.046-23.542-28.724-18.341-6.681-34.684 5.454-36.517 6.865z" fill="#555a65"/><path d="m365.395 259.035c-.498 2.259-5.217 22.06-23.561 28.73-18.332 6.666-34.661-5.458-36.498-6.871.499-2.262 5.214-22.046 23.542-28.724 18.341-6.681 34.684 5.454 36.517 6.865z" fill="#333940"/><path d="m256 361.624c-11.875-3.717-20.662-12.791-23.091-23.846-1.586-7.221 4.584-13.941 12.8-13.941h10.291l7.563 16.885z" fill="#555a65"/><path d="m256 361.624c11.875-3.717 20.662-12.791 23.091-23.846 1.586-7.221-4.584-13.941-12.8-13.941h-10.291z" fill="#333940"/></g></svg>