<svg id="Capa_1" enable-background="new 0 0 512 512" height="512" viewBox="0 0 512 512" width="512" xmlns="http://www.w3.org/2000/svg"><g><g><g><g><g><g><g><circle cx="256" cy="256" fill="#ffce00" r="256"/></g></g></g></g></g></g><path d="m505.328 314.318-58.318-58.318-82.919 12.665-59.294-99.199-239.807 154.117 188.404 188.404c.868.009 1.736.013 2.606.013 121.323 0 222.934-84.396 249.328-197.682z" fill="#ffa300"/><g><path d="m135.95 169.466-27.013 69.831-43.947 10.703v73.583h182.183l20.041-73.583-20.041-80.534z" fill="#7584f2"/></g><g><path d="m447.01 256-77.548-16.703-5.196-5.61-42.528-19.516-2.997-29.647-13.945-15.058h-57.623v154.117h199.837z" fill="#606aea"/></g><g><g><g><ellipse cx="129.821" cy="324.165" fill="#636978" rx="44.415" ry="44.415" transform="matrix(.707 -.707 .707 .707 -191.196 186.743)"/></g><g><ellipse cx="129.821" cy="324.165" fill="#414952" rx="23.332" ry="23.332" transform="matrix(.707 -.707 .707 .707 -191.196 186.743)"/></g></g><g><g><ellipse cx="382.179" cy="324.165" fill="#414952" rx="44.415" ry="44.415" transform="matrix(.23 -.973 .973 .23 -21.121 621.643)"/></g><g><ellipse cx="382.179" cy="324.165" fill="#23272b" rx="23.332" ry="23.332" transform="matrix(.23 -.973 .973 .23 -21.121 621.643)"/></g></g></g><g><path d="m237.597 233.653h-96.283l15.247-49.129h81.036z" fill="#fff"/></g><g><path d="m318.741 184.524h-62.741v49.129h108.235z" fill="#e9edf5"/></g></g></svg>