<svg id="Capa_1" enable-background="new 0 0 512 512" height="512" viewBox="0 0 512 512" width="512" xmlns="http://www.w3.org/2000/svg"><g><circle cx="256" cy="256" fill="#fd3" r="256"/><path d="m421.451 135.664-3.709-3.709-11.723 11.723-7.915-7.915-14.861 14.861 18.16 18.16-12.294 12.294-111.974-111.973-31.104 31.104 12.793 12.793-8.763 8.763 21.253 21.253-8.964 8.964-10.927-10.927-7.915 7.915 5.591 5.591-3.598 3.598 16.908 16.908-1.346 1.346 78.661 78.661-8.114 8.114-127.593-95.489-6.089 6.089-71.023-71.022-16.488 16.488 14.924 14.924-14.924 14.924v238.633l8.003 8.003-13.398 13.398 97.186 97.185c17.347 3.709 35.338 5.679 53.792 5.679 141.385 0 256-114.615 256-256 0-18.654-2.014-36.835-5.802-54.356l-75.363-75.364z" fill="#f3bd44"/><g><path d="m150.674 205.979v192.214h40v-220z" fill="#66d58a"/><path d="m216.324 177.383v220.81h40v-190z" fill="#66d58a"/><path d="m281.975 227.766v170.427h40v-142.193z" fill="#50af71"/><path d="m347.625 247.681v150.512h40v-208.384z" fill="#50af71"/><path d="m430.834 126.281-35.361 6.55-12.232 17.794 24.937-4.627-75.173 109.353-129.462-95.159-91.962 66.255 8.768 12.17 83.106-59.874 133.14 97.863 83.945-122.111 4.612 24.941 12.232-17.793z" fill="#ed755b"/><path d="m126.907 387.251v-284.485h-21.884v306.369h164.127l10.941-10.942-10.941-10.942z" fill="#fff"/><path d="m269.15 387.251h142.243v21.883h-142.243z" fill="#e0e0e0"/></g><g><g><path d="m269.098 69.105h-8.036v10.853c-11.168 4.463-20.331 16.076-17.831 29.076 1.759 9.143 8.693 16.428 17.831 19.456v21.326c-2.485-1.306-4.091-2.915-4.112-2.935l-5.531-5.829-11.658 11.063 5.532 5.829c.868.914 6.816 6.87 15.769 8.911v9.558h8.036l5.134-53.654zm-7.468 43.229c-2.869-1.543-4.655-4.553-4.628-7.801.026-3.197 1.805-6.138 4.628-7.657z" fill="#4f4f4f"/><path d="m277.134 115.543v-19.878c2.529 1.308 4.192 2.948 4.263 3.02l5.572 5.777 11.568-11.157-5.578-5.784c-.877-.909-6.88-6.847-15.824-8.873v-9.544h-8.036v107.308h8.036v-10.829c10.712-4.288 19.898-15.413 17.995-28.724-1.4-9.785-8.545-17.918-17.996-21.316zm-.147 32.528v-15.458c2.823 1.519 4.602 4.46 4.628 7.657.027 3.248-1.759 6.258-4.628 7.801z" fill="#2b2b2b"/></g></g></g></svg>