<svg id="Capa_1" enable-background="new 0 0 512 512" height="512" viewBox="0 0 512 512" width="512" xmlns="http://www.w3.org/2000/svg"><g><circle cx="256" cy="256" fill="#9dcfff" r="256"/><g><g><path d="m512 256c0-20.92-2.528-41.248-7.262-60.711l-96.144-96.144-305.188 305.187 102.814 102.814c16.105 3.175 32.745 4.854 49.78 4.854 141.385 0 256-114.615 256-256z" fill="#6aa8ff"/></g></g><g><g><path d="m151.38 251.738-47.974 47.974c-28.89 28.89-28.89 75.73 0 104.62 28.89 28.89 75.73 28.89 104.62 0l47.974-47.973-38.168-66.452z" fill="#ff8759"/><path d="m303.974 99.145-47.974 47.973 38.168 66.452 66.452 38.168 47.974-47.974c28.89-28.89 28.89-75.73 0-104.62-28.89-28.889-75.73-28.889-104.62.001z" fill="#ff5b5b"/></g><g><g fill="#ffba84"><circle cx="322.051" cy="143.001" r="10.647"/><circle cx="364.738" cy="185.688" r="10.647"/><circle cx="373.509" cy="134.229" r="10.647"/></g><g fill="#fcd0a2"><circle cx="147.262" cy="317.789" r="10.647"/><circle cx="189.949" cy="360.476" r="10.647"/><circle cx="138.491" cy="369.248" r="10.647"/></g></g><g><path d="m151.38 251.738 104.62 104.621 52.31-52.31-45.239-59.382-59.381-45.239z" fill="#fcd0a2"/><path d="m245.166 151.606h73.978v147.955h-73.978z" fill="#ffba84" transform="matrix(.707 -.707 .707 .707 -76.87 265.586)"/></g><path d="m256 310.824 29.543-29.543-19.459-33.6-39.627-25.486-29.543 29.543z" fill="#fff"/><path d="m249.881 195.187h41.78v83.56h-41.78z" fill="#e3eaee" transform="matrix(.707 -.707 .707 .707 -88.254 260.87)"/></g></g></svg>