<svg id="svg1" height="100" viewBox="0 0 26.458329 26.458333" width="100" xmlns="http://www.w3.org/2000/svg" xmlns:xlink="http://www.w3.org/1999/xlink" xmlns:svg="http://www.w3.org/2000/svg"><linearGradient id="linearGradient64" gradientUnits="userSpaceOnUse" x1="380.194" x2="405.786" y1="177.473" y2="150.972"><stop id="stop5" offset="0" stop-color="#00c72b"/><stop id="stop6" offset="1" stop-color="#42ffc4"/></linearGradient><g id="layer1" transform="translate(-379.714 -150.713)"><g id="g69"><path id="path68" d="m406.17249 163.94176a13.229164 13.229166 0 0 1 -13.22916 13.22916 13.229164 13.229166 0 0 1 -13.22917-13.22916 13.229164 13.229166 0 0 1 13.22917-13.22917 13.229164 13.229166 0 0 1 13.22916 13.22917z" fill="url(#linearGradient64)" paint-order="stroke fill markers"/><path id="path69" d="m390.29671 155.7529c-.12239 0-.24445.0277-.35708.0832l-.90072.44545c-.0413.0204-.0894.0204-.13074 0l-.89865-.44545a.33076208.33076208 0 0 0 -.002 0c-.30494-.15041-.68782.0894-.68782.42943v13.02143a.33076208.33076208 0 0 0 .33021.33021l10.58592.002a.33076208.33076208 0 0 0 .33021-.33228v-13.02143c0-.34004-.38438-.58004-.68936-.42943l-.89865.44545c-.0413.0204-.0894.0204-.13074 0l-.90072-.44545c-.22526-.11104-.48943-.11103-.71469 0l-.9002.44545c-.0413.0204-.0894.0204-.13074 0l-.90072-.44545c-.22526-.11104-.48943-.11104-.71469 0l-.9002.44545c-.0413.0204-.0899.0204-.13126 0l-.9002-.44545c-.11263-.0555-.23521-.0832-.35761-.0832zm-.29455 4.53616h5.88284a.33072901.33072901 0 0 1 .3297.33021.33072901.33072901 0 0 1 -.3297.33176h-5.88284a.33072901.33072901 0 0 1 -.33021-.33176.33072901.33072901 0 0 1 .33021-.33021zm0 2.89646h5.88284a.33072901.33072901 0 0 1 .3297.33228.33072901.33072901 0 0 1 -.3297.3297h-5.88284a.33072901.33072901 0 0 1 -.33021-.3297.33072901.33072901 0 0 1 .33021-.33228zm0 2.89853h5.88284a.33072901.33072901 0 0 1 .3297.33021.33072901.33072901 0 0 1 -.3297.33177h-5.88284a.33072901.33072901 0 0 1 -.33021-.33177.33072901.33072901 0 0 1 .33021-.33021zm-4.40645.092c-.46831 0-.85371.38693-.8537.85524v3.48816c0 .88517.72457 1.61127 1.60973 1.61127h13.18317c.88516 0 1.60972-.7261 1.60972-1.61127v-3.48816c.00001-.46831-.38538-.85524-.85369-.85524h-.68162a.33072901.33072901 0 0 0 -.33176.33176.33072901.33072901 0 0 0 .33176.33021h.68162c.11083 0 .19328.0824.19327.19327v3.48816c0 .5277-.42161.9493-.9493.9493h-13.18317c-.52769 0-.9493-.4216-.9493-.9493v-3.48816c0-.11083.0824-.19327.19327-.19327h.68161a.33072901.33072901 0 0 0 .33228-.33021.33072901.33072901 0 0 0 -.33228-.33176z" fill="#fff" stroke-linecap="round" stroke-linejoin="round"/></g></g></svg>