<svg id="Capa_1" enable-background="new 0 0 512 512" height="512" viewBox="0 0 512 512" width="512" xmlns="http://www.w3.org/2000/svg"><g><g><g><g><g><g><g><circle cx="256" cy="256" fill="#ffce00" r="256"/></g></g></g></g></g></g><path d="m512 256c0-7.19-.297-14.312-.878-21.352l-165.993-165.993-246.728 327.39 111.885 111.885c14.833 2.674 30.11 4.07 45.714 4.07 141.385 0 256-114.615 256-256z" fill="#ffa300"/><g><g><path d="m163.39 68.655-27.744 38.69-37.245 26.299v262.401h246.728v-327.39z" fill="#fff"/></g><g><path d="m219.203 68.655h125.926v327.39h-125.926z" fill="#e9edf5"/></g><g><path d="m163.39 133.644v-64.989l-64.988 64.989z" fill="#636978"/></g></g><g><path d="m159.114 202.583-8.183-16.365h-6.429v16.365h-12.566v-48.73h24.401c10.813 0 16.95 7.16 16.95 16.219 0 8.475-5.187 13.004-9.717 14.612l9.936 17.899zm1.388-32.584c0-3.288-2.776-5.187-6.064-5.187h-9.936v10.448h9.936c3.288 0 6.064-1.827 6.064-5.261z" fill="#636978"/><path d="m180.23 202.583v-48.73h35.726v10.959h-23.16v7.598h22.648v10.959h-22.648v8.256h23.16v10.959h-35.726z" fill="#636978"/><g fill="#414952"><path d="m256.432 202.583-20.602-28.201v28.201h-12.566v-48.73h12.931l19.726 26.813v-26.813h12.639v48.73z"/><path d="m288.215 202.583v-37.771h-13.662v-10.959h39.817v10.959h-13.589v37.771z"/></g></g><g><path d="m129.191 290.757h185.149v30h-185.149z" fill="#cdd2e1"/></g><g><path d="m219.203 290.757h95.136v30h-95.136z" fill="#afb4c8"/></g><g><path d="m129.191 240.485h185.149v30h-185.149z" fill="#cdd2e1"/></g><g><path d="m219.203 240.485h95.136v30h-95.136z" fill="#afb4c8"/></g><g><path d="m411.182 215.394h-85.67c-6.306 16.399-22.198 28.043-40.818 28.043v79.045c0 27.222 13.167 52.763 35.341 68.553l48.313 34.405 48.313-34.405c22.172-15.79 35.339-41.331 35.339-68.553v-79.045c-18.62 0-34.512-11.643-40.818-28.043z" fill="#1dd882"/><path d="m411.182 215.394h-42.835v210.042.004l48.313-34.405c22.173-15.79 35.34-41.331 35.34-68.553v-79.045c-18.62 0-34.512-11.644-40.818-28.043z" fill="#12c66c"/><path d="m368.347 443.855-57.014-40.602c-26.074-18.566-41.64-48.761-41.64-80.771v-94.045h15c11.802 0 22.58-7.405 26.818-18.426l3.698-9.616h106.276l3.698 9.616c4.238 11.021 15.015 18.426 26.817 18.426h15v94.045c0 32.009-15.566 62.204-41.64 80.772zm-68.654-187.397v66.024c0 22.325 10.857 43.385 29.042 56.334l39.612 28.209 39.611-28.208c18.185-12.95 29.042-34.009 29.042-56.335v-66.024c-14.482-3.878-27.138-13.234-35.053-26.064h-67.2c-7.916 12.83-20.572 22.186-35.054 26.064z" fill="#12c66c"/><path d="m368.347 443.855 57.013-40.601c26.074-18.567 41.64-48.762 41.64-80.771v-94.045h-15c-11.802 0-22.579-7.405-26.817-18.427l-3.698-9.616h-53.138v30h33.6c7.915 12.83 20.571 22.185 35.053 26.064v66.024c0 22.325-10.857 43.385-29.042 56.334l-39.611 28.208z" fill="#06b26b"/></g><g><path d="m357.367 356.043-40.322-40.322 21.213-21.213 19.109 19.108 49.899-49.899 21.213 21.214z" fill="#fff"/></g><path d="m368.347 302.637v42.426l60.132-60.132-21.213-21.213z" fill="#e9edf5"/></g></svg>