<svg id="Capa_1" enable-background="new 0 0 512.006 512.006" height="512" viewBox="0 0 512.006 512.006" width="512" xmlns="http://www.w3.org/2000/svg"><g><g><g><g><g><g><g><g><g><g><g><g><g><g><g><g><g><g><g><circle cx="256.003" cy="256" fill="#ffe377" r="256"/></g></g></g></g></g></g></g></g></g></g></g></g></g></g></g></g></g></g><path d="m190.926 189.433-71.994 75.375-24.509-24.509-3.723 6.26 6.183 41.334-40.04 41.92 181.579 181.579c5.812.395 11.673.613 17.586.613 71.072.001 135.372-28.968 181.757-75.733zm320.374 85.679-66.048-66.048-1.551 1.551-131.346-131.347-109.774 109.775 241.078 241.078c38.355-41.318 63.237-95.311 67.641-155.009z" fill="#ffd944"/><g><g><g><path d="m166.251 404.74h90.958l8.767-15.334-8.767-15.333h-90.958z" fill="#7a3eb4"/><path d="m257.209 374.073h90.958v30.666h-90.958z" fill="#613393"/></g><path d="m199.631 439.701h-3.306c-11.086 0-20.074-8.987-20.074-20.074v-60.442c0-11.086 8.987-20.074 20.074-20.074h3.306c11.086 0 20.074 8.987 20.074 20.074v60.442c0 11.087-8.988 20.074-20.074 20.074z" fill="#4b5055"/><path d="m318.094 439.701h-3.306c-11.086 0-20.074-8.987-20.074-20.074v-60.442c0-11.086 8.987-20.074 20.074-20.074h3.306c11.086 0 20.074 8.987 20.074 20.074v60.442c-.001 11.087-8.988 20.074-20.074 20.074z" fill="#373c41"/></g><g><g><path d="m147.827 322.894h-34.455l-8.644-133.461h43.099l17.777 68.86z" fill="#bdeaf9"/><path d="m182.282 322.894h-34.455v-133.461h43.099z" fill="#9de1f7"/><g><path d="m116.988 244.988 4.485 69.262h26.354l12.441-36.565-12.441-32.697z" fill="#8fe26a"/><path d="m147.827 314.25h26.354l4.485-69.262h-30.839z" fill="#70d940"/></g></g><g><g><path d="m90.701 263.227c-21.296-19.354-52.22-8.146-52.22 19.913 0 26.396 15.305 53.847 35.978 53.847 8.102 0 16.242-3.521 16.242-3.521l11.315-36.442z" fill="#ff5b5b"/><path d="m90.701 263.227c21.296-19.354 52.22-8.146 52.22 19.913 0 26.396-15.305 53.847-35.978 53.847-8.102 0-16.242-3.521-16.242-3.521z" fill="#ff4a4a"/></g><g><path d="m90.701 272.027h-3.724v-31.728h3.724l1.861 15.864z" fill="#8fe26a"/><path d="m90.701 240.299h3.723v31.728h-3.723z" fill="#70d940"/></g></g></g><g><g><path d="m383.464 210.636-1.577-1.577c-16.626-16.626-43.581-16.626-60.207 0s-16.626 43.581 0 60.207l61.782 61.782.002-.002.002.002 23.363-72.937z" fill="#ff5b5b"/><path d="m445.247 209.059c-16.626-16.626-43.581-16.626-60.207 0l-1.577 1.577-.002 120.412.002-.002.002.002 61.782-61.782c16.626-16.626 16.626-43.581 0-60.207z" fill="#ff4a4a"/></g><path d="m383.462 228.066h-5.364l-6.886 30.319-10.623-42.612-10.478-.622-12.106 31.885h-46.291v11l53.87.03 8.579-22.597 11.961 48.134h10.701l6.636-29.486.001.002 3.133-11.747z" fill="#f7f9fa"/><path d="m397.071 264.374-8.246-36.308h-5.363v26.053l6.636 29.484h10.42l12.479-28.491h62.528v-11l-69.772-.036z" fill="#eeeae7"/></g><g><g><path d="m202.065 188.526h55.144l27.573-67.113-27.573-67.114h-55.144z" fill="#f7f9fa"/><path d="m257.209 188.526h55.145v-109.258l-18.191-7.389-6.778-17.58h-30.176z" fill="#eeeae7"/></g><path d="m287.385 79.268h24.969l-24.969-24.969z" fill="#dbe1e8"/><g><path d="m217.07 112.413h40.139l3.869-7.5-3.869-7.5h-40.139z" fill="#7a3eb4"/><path d="m257.209 97.413h40.139v15h-40.139z" fill="#613393"/></g><g><path d="m217.07 138.227h40.139l3.869-7.5-3.869-7.5h-40.139z" fill="#7a3eb4"/><path d="m257.209 123.227h40.139v15h-40.139z" fill="#613393"/></g><g><path d="m217.07 164.042h40.139l3.869-7.5-3.869-7.5h-40.139z" fill="#7a3eb4"/><path d="m257.209 149.042h20.07v15h-20.07z" fill="#613393"/></g></g></g></g></svg>