<?xml version="1.0" encoding="iso-8859-1"?>
<!-- Generator: Adobe Illustrator 19.0.0, SVG Export Plug-In . SVG Version: 6.00 Build 0)  -->
<svg version="1.1" id="Layer_1" xmlns="http://www.w3.org/2000/svg" xmlns:xlink="http://www.w3.org/1999/xlink" x="0px" y="0px"
	 viewBox="0 0 297 297" style="enable-background:new 0 0 297 297;" xml:space="preserve">
<g>
	<g>
		<circle style="fill:#345065;" cx="148.5" cy="148.5" r="148.5"/>
	</g>
	<g>
		<path style="fill:#263D49;" d="M297,148.5c0-5.943-0.36-11.801-1.039-17.562L207.603,42.58L85.149,250.482l45.439,45.439
			c5.873,0.706,11.848,1.078,17.911,1.078C230.514,297,297,230.514,297,148.5z"/>
	</g>
	<g>
		<path style="fill:#E3E5E4;" d="M214.5,55.958c0-8.123-6.585-14.708-14.708-14.708H97.208c-8.123,0-14.708,6.585-14.708,14.708
			v5.898h132V55.958z"/>
	</g>
	<g>
		<rect x="82.5" y="61.857" style="fill:#82D9C8;" width="132" height="160.143"/>
	</g>
	<g>
		<path style="fill:#E3E5E4;" d="M82.5,222v19.042c0,8.123,6.585,14.708,14.708,14.708h102.583c8.123,0,14.708-6.585,14.708-14.708
			V222H82.5z"/>
	</g>
	<g>
		<polygon style="fill:#ECF0F1;" points="82.676,61.857 73,100.56 98.199,100.56 104.501,61.857 		"/>
	</g>
	<g>
		<polygon style="fill:#D35400;" points="127.051,61.857 104.501,61.857 98.199,100.56 123.271,100.56 		"/>
	</g>
	<g>
		<polygon style="fill:#ECF0F1;" points="148.437,61.857 127.051,61.857 123.271,100.56 148.437,100.56 		"/>
	</g>
	<g>
		<polygon style="fill:#ECF0F1;" points="169.918,61.857 173.699,100.56 198.771,100.56 192.469,61.857 		"/>
	</g>
	<g>
		<polygon style="fill:#D35400;" points="214.325,61.857 192.469,61.857 198.771,100.56 224,100.56 		"/>
	</g>
	<g>
		<polygon style="fill:#D35400;" points="148.437,61.857 148.437,100.56 173.699,100.56 169.918,61.857 		"/>
	</g>
	<g>
		<path style="fill:#D1D1D1;" d="M98.167,100.56c0,6.95-5.634,12.583-12.583,12.583S73,107.51,73,100.56"/>
	</g>
	<g>
		<path style="fill:#BF4704;" d="M123.334,100.56c0,6.95-5.634,12.583-12.583,12.583c-6.95,0-12.583-5.634-12.583-12.583"/>
	</g>
	<g>
		<path style="fill:#D1D1D1;" d="M148.5,100.56c0,6.95-5.634,12.583-12.583,12.583s-12.583-5.634-12.583-12.583"/>
	</g>
	<g>
		<path style="fill:#BF4704;" d="M173.667,100.56c0,6.95-5.634,12.583-12.583,12.583c-6.95,0-12.583-5.634-12.583-12.583"/>
	</g>
	<g>
		<path style="fill:#D1D1D1;" d="M198.834,100.56c0,6.95-5.634,12.583-12.583,12.583s-12.583-5.634-12.583-12.583"/>
	</g>
	<g>
		<path style="fill:#BF4704;" d="M224,100.56c0,6.95-5.634,12.583-12.583,12.583s-12.583-5.634-12.583-12.583"/>
	</g>
</g>
<g>
</g>
<g>
</g>
<g>
</g>
<g>
</g>
<g>
</g>
<g>
</g>
<g>
</g>
<g>
</g>
<g>
</g>
<g>
</g>
<g>
</g>
<g>
</g>
<g>
</g>
<g>
</g>
<g>
</g>
</svg>
