<?xml version="1.0" encoding="iso-8859-1"?>
<!-- Generator: Adobe Illustrator 19.0.0, SVG Export Plug-In . SVG Version: 6.00 Build 0)  -->
<svg version="1.1" id="Layer_1" xmlns="http://www.w3.org/2000/svg" xmlns:xlink="http://www.w3.org/1999/xlink" x="0px" y="0px"
	 viewBox="0 0 297.001 297.001" style="enable-background:new 0 0 297.001 297.001;" xml:space="preserve">
<g>
	<g>
		<circle style="fill:#D35400;" cx="148.501" cy="148.5" r="148.5"/>
	</g>
	<g>
		<path style="fill:#BC4604;" d="M296.336,162.534l-42.971-42.216L64.883,235.882l59.09,59.091
			c7.98,1.326,16.171,2.028,24.527,2.028C225.781,297,289.263,237.965,296.336,162.534z"/>
	</g>
	<g>
		<rect x="59.365" y="76.889" style="fill:#ECF0F1;" width="104.343" height="137.674"/>
	</g>
	<g>
		<path style="fill:#BDC3C7;" d="M59.365,214.564v9.328c0,9.17,7.426,16.609,16.596,16.624l71.095,0.118
			c9.192,0.015,16.652-7.432,16.652-16.624v-9.446L59.365,214.564L59.365,214.564z"/>
	</g>
	<g>
		<g>
			<path style="fill:#2B2B2B;" d="M128.667,89.358c-2.203,0-3.99-1.786-3.99-3.99V68.237c0-7.246-5.895-13.141-13.141-13.141
				s-13.141,5.895-13.141,13.141v17.131c0,2.203-1.786,3.99-3.99,3.99c-2.203,0-3.99-1.786-3.99-3.99V68.237
				c0-11.646,9.475-21.12,21.12-21.12s21.12,9.475,21.12,21.12v17.131C132.656,87.572,130.87,89.358,128.667,89.358z"/>
		</g>
	</g>
	<g>
		<path style="fill:#E04332;" d="M111.536,145.785c0-5.637-4.57-10.207-10.207-10.207s-10.207,4.57-10.207,10.207
			c0,16.943,20.407,22.355,20.407,22.355h0.013c0,0,20.407-5.412,20.407-22.355c0-5.637-4.57-10.207-10.207-10.207
			C116.106,135.578,111.536,140.148,111.536,145.785"/>
	</g>
	<g>
		<rect x="149.021" y="120.318" style="fill:#EFC684;" width="104.343" height="94.245"/>
	</g>
	<g>
		<path style="fill:#F4AF30;" d="M149.021,214.564v9.328c0,9.17,7.426,16.609,16.596,16.624l71.095,0.118
			c9.192,0.015,16.652-7.432,16.652-16.624v-9.446L149.021,214.564L149.021,214.564z"/>
	</g>
	<g>
		<g>
			<path style="fill:#2B2B2B;" d="M218.324,132.787c-2.203,0-3.99-1.786-3.99-3.99v-17.131c0-7.246-5.895-13.141-13.141-13.141
				s-13.141,5.895-13.141,13.141v17.131c0,2.203-1.786,3.99-3.99,3.99s-3.99-1.786-3.99-3.99v-17.131
				c0-11.646,9.475-21.12,21.12-21.12c11.646,0,21.12,9.475,21.12,21.12v17.131C222.314,131.001,220.527,132.787,218.324,132.787z"
				/>
		</g>
	</g>
</g>
<g>
</g>
<g>
</g>
<g>
</g>
<g>
</g>
<g>
</g>
<g>
</g>
<g>
</g>
<g>
</g>
<g>
</g>
<g>
</g>
<g>
</g>
<g>
</g>
<g>
</g>
<g>
</g>
<g>
</g>
</svg>
