<svg id="Capa_1" enable-background="new 0 0 512 512" height="512" viewBox="0 0 512 512" width="512" xmlns="http://www.w3.org/2000/svg"><g><g><g><g><g><g><g><circle cx="256" cy="256" fill="#ffce00" r="256"/></g></g></g></g></g></g><path d="m512 256c0-.3-.001-.6-.002-.899l-92.626-92.626-12.134 9.162-86.414-86.415-195.412 339.239 83.153 83.153c15.372 2.88 31.227 4.386 47.435 4.386 141.385 0 256-114.615 256-256z" fill="#ffa300"/><g><path d="m356.343 380.598h-33.288v-30h33.288c18.213 0 33.029-14.817 33.029-33.029v-141.883l-60.483-55.347 20.254-22.132 70.229 64.267v155.094c0 34.755-28.274 63.03-63.029 63.03z" fill="#414952"/></g><g><path d="m142.613 85.222v126.212l-10 21.176v183.533h198.211v-183.533l-10-21.176v-126.212z" fill="#fff"/></g><g><path d="m142.613 85.222v126.212l-10 21.176v183.533h100.669l10-170.726-11.367-160.195z" fill="#fff"/></g><g><path d="m330.824 232.61-10-21.176v-126.212h-88.909v330.921h98.909z" fill="#e9edf5"/></g><g><path d="m125.412 385.282v39.179h107.87l8.547-19.59-8.547-19.589z" fill="#636978"/></g><g><path d="m231.915 385.282h106.109v39.179h-106.109z" fill="#414952"/></g><g><path d="m167.06 107.96v70.373h66.222l10-35.187-10-35.186z" fill="#636978"/></g><g><path d="m231.915 107.96h64.461v70.373h-64.461z" fill="#414952"/></g><g><path d="m160.608 239.461h37.271v91.722h-37.271z" fill="#e9edf5"/></g><g><path d="m399.854 218.527h-51.141v-80.788h30v50.788h21.141z" fill="#414952"/></g></g></svg>