<svg viewBox="0 0 53 53" xmlns="http://www.w3.org/2000/svg"><g id="a"/><g id="b"><g id="c"><g><circle cx="26.5" cy="26.5" fill="#14439e" r="26.5"/><g fill="#e6d000"><path d="m26.37 7.86.71 2.17h2.29l-1.85 1.35.7 2.17-1.85-1.34-1.85 1.34.71-2.17-1.85-1.35h2.29z"/><path d="m26.37 39.45.71 2.17h2.29l-1.85 1.35.7 2.17-1.85-1.34-1.85 1.34.71-2.17-1.85-1.35h2.29z"/><path d="m42.33 23.94.7 2.17h2.29l-1.85 1.35.71 2.17-1.85-1.34-1.85 1.34.7-2.17-1.85-1.35h2.29z"/><path d="m10.67 23.94.71 2.17h2.29l-1.85 1.35.7 2.17-1.85-1.34-1.85 1.34.71-2.17-1.85-1.35h2.29z"/><path d="m12.83 15.93.71 2.18h2.29l-1.85 1.34.7 2.17-1.85-1.34-1.85 1.34.71-2.17-1.85-1.34h2.29z"/><path d="m12.83 31.95.71 2.17h2.29l-1.85 1.35.7 2.17-1.85-1.34-1.85 1.34.71-2.17-1.85-1.35h2.29z"/><path d="m39.78 15.93.71 2.18h2.29l-1.85 1.34.7 2.17-1.85-1.34-1.85 1.34.71-2.17-1.85-1.34h2.29z"/><path d="m34.25 10.24.71 2.17h2.29l-1.85 1.35.7 2.17-1.85-1.34-1.85 1.34.71-2.17-1.85-1.35h2.29z"/><path d="m34.25 36.81.71 2.17h2.29l-1.85 1.34.7 2.18-1.85-1.35-1.85 1.35.71-2.18-1.85-1.34h2.29z"/><path d="m18.52 10.24.71 2.17h2.29l-1.85 1.35.7 2.17-1.85-1.34-1.85 1.34.71-2.17-1.85-1.35h2.29z"/><path d="m18.52 36.81.71 2.17h2.29l-1.85 1.34.7 2.18-1.85-1.35-1.85 1.35.71-2.18-1.85-1.34h2.29z"/><path d="m39.78 31.95.71 2.17h2.29l-1.85 1.35.7 2.17-1.85-1.34-1.85 1.34.71-2.17-1.85-1.35h2.29z"/></g></g></g></g></svg>