<svg height="512" viewBox="0 0 58 52" width="512" xmlns="http://www.w3.org/2000/svg"><g id="Page-1" fill="none" fill-rule="evenodd"><g id="004---Credit-Card" fill-rule="nonzero"><path id="Shape" d="m6.08 34h-.08c-3.3137085 0-6-2.6862915-6-6v-22c0-3.3137085 2.6862915-6 6-6h39c3.3137085 0 6 2.6862915 6 6v22c0 3.3137085-2.6862915 6-6 6z" fill="#f29c1f"/><path id="Rectangle-path" d="m0 18h51v8h-51z" fill="#464f5d"/><rect id="Rectangle-path" fill="#f3d55b" height="8" rx="4" width="12" x="6" y="5"/><path id="Shape" d="m44 8h-22c-.5522847 0-1-.44771525-1-1s.4477153-1 1-1h22c.5522847 0 1 .44771525 1 1s-.4477153 1-1 1z" fill="#fac176"/><path id="Shape" d="m34 12h-12c-.5522847 0-1-.4477153-1-1s.4477153-1 1-1h12c.5522847 0 1 .4477153 1 1s-.4477153 1-1 1z" fill="#fac176"/><rect id="Rectangle-path" fill="#e64c3c" height="20" rx="3" width="48" x="10" y="32"/><g fill="#fff"><path id="Shape" d="m18 35h-3c-.5522847 0-1 .4477153-1 1v12c0 .5522847.4477153 1 1 1h3c2.7600532-.0033061 4.9966939-2.2399468 5-5v-4c-.0033061-2.7600532-2.2399468-4.9966939-5-5zm3 9c0 1.6568542-1.3431458 3-3 3h-2v-10h2c1.6568542 0 3 1.3431458 3 3z"/><path id="Shape" d="m32 37c.5522847 0 1-.4477153 1-1s-.4477153-1-1-1h-6c-.5522847 0-1 .4477153-1 1v12c0 .5522847.4477153 1 1 1h6c.5522847 0 1-.4477153 1-1s-.4477153-1-1-1h-5v-4h5c.5522847 0 1-.4477153 1-1s-.4477153-1-1-1h-5v-4z"/><path id="Shape" d="m44 39c0-2.209139-1.790861-4-4-4h-4c-.5522847 0-1 .4477153-1 1v12c0 .5522847.4477153 1 1 1h4c1.6680192.0073962 3.1639686-1.0253639 3.748285-2.5877074.5843165-1.5623435.1332171-3.3232998-1.130285-4.4122926.8740013-.752208 1.378281-1.8468819 1.382-3zm-2 6c0 1.1045695-.8954305 2-2 2h-3v-4h3c1.1045695 0 2 .8954305 2 2zm-5-4v-4h3c1.1045695 0 2 .8954305 2 2s-.8954305 2-2 2z"/><path id="Shape" d="m54 35h-8c-.5522847 0-1 .4477153-1 1s.4477153 1 1 1h3v11c0 .5522847.4477153 1 1 1s1-.4477153 1-1v-11h3c.5522847 0 1-.4477153 1-1s-.4477153-1-1-1z"/></g></g></g></svg>