<svg id="Layer_1" enable-background="new 0 0 50 50" height="512" viewBox="0 0 50 50" width="512" xmlns="http://www.w3.org/2000/svg"><g><g><g><g><path d="m48.9981232 22.3970165-40.2563658 9.352911-7.723526-11.0802555 40.2563658-9.353343z" fill="#47a047"/></g><g><path d="m44.5340729 21.4667416-15.199131 3.5342636c1.9220695-1.036232 2.4977608-2.9495449 1.2400417-4.7564659-.4783287-.6820278-1.1603031-1.2753963-1.9663448-1.7450752-1.3374043-.7702541-3.0025787-1.2044678-4.6412086-1.1867371l15.207943-3.5338306c.6731606-.1595869 1.4260635-.053196 1.9132004.2214317.1594276.0973091.2923088.2123499.3897247.3451223l4.0389175 5.784049c.3631248.5315228-.0708733 1.1248913-.9831429 1.3372422z" fill="#96d696"/></g><g><path d="m39.8262863 14.6731043c.0964928.0557089.1758842.1230869.2310982.2005177.2157936.313509-.0414314.6660786-.5818672.7901649-.3984337.0948362-.8418198.0337706-1.1287994-.131917-.0980644-.0566168-.1779976-.1253681-.2315788-.2043266-.2213173-.3103418.0413971-.6661005.5707054-.7902536.4056319-.093154.8502425-.0317336 1.1404418.1358146z" fill="#47a047"/></g><g><path d="m41.6166649 21.5145817c-.0723953.1665459-.2746353.2906132-.6012459.3690262-.3319054.074976-.6250916.0684872-.8794365-.0261097-.0725975-.0270786-.1410942-.0592079-.205471-.0963764-.1610031-.0929546-.2961845-.2176189-.4059143-.3738289-.1589394-.2220592-.1937561-.4180183-.1273537-.5876732.0782166-.1699009.2746353-.2906132.6068916-.3657398.3265381-.0784264.6194954-.0717468.8737907.0228233.0780144.0273914.1506462.0608521.2186699.1001244.1586952.0916233.2909431.2156506.3983383.3733273.1533166.2188395.1939278.4114322.1217309.5844268zm-.7430496.1631946c.2024002-.0455761.3203354-.1272182.3423462-.2448082.0331192-.1175346-.0128288-.2545967-.1264801-.4113102-.0851135-.1307068-.1937485-.2340374-.3224106-.3083191-.0257797-.014883-.0524178-.0285034-.0796623-.0410652-.1581841-.0718918-.3385963-.0849552-.5413208-.039217-.2027245.0457668-.3150177.1306419-.3481407.2481766-.0274506.1208076.0128517.254612.1206856.4146786.0899696.1275291.1989784.2303696.3274994.3045692.0260124.0150204.0529366.0287762.0804138.0414734.1581153.0718785.3442191.0882015.5470695.0358219" fill="#414a61"/></g><g><path d="m38.5014572 20.8223457.9716835 1.4007264-.3885307.0881938-.8238716-1.1917953-.4899521.1143894-.1478119-.2089329z" fill="#414a61"/></g><g><path d="m15.6663733 22.7041073c.3803263.2195816.6921854.4861488.9064093.7923946.8466492 1.2113018-.1601582 2.5891418-2.2544947 3.0724926-1.5593462.3631802-3.2825384.1275082-4.4055681-.520874-.3809395-.2199345-.6929188-.487278-.9059267-.7949409-.8466501-1.2112999.1658354-2.585865 2.2544947-3.0724907 1.5602244-.3633805 3.2813653-.1253624 4.4050855.5234184z" fill="#47a047"/></g><g><path d="m34.0926628 15.9999952c.0983696.0567942.1790352.1259661.2340736.2057657.2157936.313509-.0414352.6660786-.5818672.7901649-.3984337.0948372-.8418236.0337715-1.1288033-.131918-.0980606-.0566158-.1779976-.1253662-.231575-.2043247-.2213211-.3103428.0413933-.6661015.5761909-.7934427.402958-.0925778.8439294-.0325526 1.131981.1337548z" fill="#47a047"/></g><g><path d="m36.9572411 15.3366718c.0988693.0570812.1798782.1264524.2348747.2062302.2216263.3101654-.0413933.6660995-.5818291.7901878-.4009819.0905399-.8443336.0287876-1.1343422-.138649-.0966454-.0557976-.1763039-.1233311-.2317123-.2008724-.2158318-.3135309.0413971-.6661005.5818291-.7901869.3984718-.0948143.8418197-.0337705 1.1311798.1332903z" fill="#47a047"/></g><g><path d="m43.9979019 20.9627743c-.0723991.1665459-.2746353.2906151-.601223.3690128-.3319054.074976-.6250954.0684872-.8794632-.0260963-.0725937-.0270786-.1410713-.0592213-.2055664-.0964584-.1613541-.0931568-.2976837-.2184601-.4114151-.3770046-.1532936-.2188015-.1884613-.4146118-.1217079-.5844154.0779114-.1697235.2746086-.2906265.6011963-.3690262.3319092-.074976.6250954-.0684872.8794632.0260963.0756721.0281525.1471329.0616398.2143784.1004639.1588173.091692.2931595.2137623.3969841.3697548.1589622.2220725.1995735.4146651.1273536.5876731zm-.7430267.1631813c.2024002-.0455742.3203354-.1272182.3423424-.2448082.0276337-.1143436-.0128479-.2545834-.1264763-.4113102-.089817-.1334229-.1953278-.2349472-.322834-.3085632-.0254974-.0147209-.0519943-.0282593-.0792618-.0408077-.1581421-.0718918-.3441963-.088213-.5412979-.0392017-.2027283.0457382-.3261299.130558-.3481636.2481613-.033123.1175346.0070534.2579517.1150856.4114189.0946274.1302185.2044601.2335339.3298264.3059158.0253792.0146523.0515022.0279751.0780144.0400867.1638106.0751648.344242.0882149.5527648.0391083" fill="#414a61"/></g><g><path d="m21.4018784 24.569128c1.3348446.7706738 3.0090065 1.2089729 4.6470222 1.1942043l-15.2044001 3.531929c-.6775475.158617-1.4256191.0544205-1.9145746-.2278786-.1650705-.0953026-.3005753-.2109776-.393858-.3435841l-4.0347476-5.7854671c-.3638134-.5289001.072803-1.12327.9788222-1.3353672l15.2056866-3.5322399c-1.9247189 1.035387-2.5121689 2.9516239-1.2533321 4.7596588.4765835.6833688 1.1607285 1.2718698 1.9693814 1.7387448zm-7.0836239 1.9998646c2.0943527-.4833488 3.1011639-1.8611927 2.2545128-3.0724983-.2142487-.306242-.5260849-.5728016-.9064217-.7923889-1.1237183-.6487789-2.844861-.8868008-4.4050713-.5234203-2.0886621.4866352-3.1011648 1.8611927-2.2545137 3.0724983.2130146.3076668.5249968.575016.90592.7949409 1.1230364.648386 2.8462296.8840447 4.4055739.5208683" fill="#96d696"/></g><g><path d="m48.9999962 22.3993931-.0163765 5.7761001-40.2552128 9.3542767.0163746-5.7761002z" fill="#47a047"/></g><g fill="#5faf5f"><path d="m48.9889717 26.2815189-40.2550058 9.2802716-.0011597.4145507 40.2550058-9.2797832z"/><path d="m48.9910469 25.5510502-40.2550058 9.2797832-.0011597.4150391 40.2550058-9.2797833z"/><path d="m48.9993477 22.6296635-40.2550058 9.2797851-.0011597.4145489 40.2550058-9.2797833z"/><path d="m48.9951973 24.0901127-40.2550058 9.2797832-.0011597.4150391 40.2550058-9.2797833z"/><path d="m48.9931221 24.8205814-40.2550058 9.2797833-.0011597.415039 40.2550058-9.2797832z"/><path d="m48.9848213 27.7419682-40.2549448 9.2802715-.0012207.4145508 40.2550059-9.2797833z"/><path d="m48.9972725 23.3601322-40.2550058 9.279295-.0011597.415039 40.2550058-9.2797832z"/><path d="m48.9868965 27.0119877-40.2550058 9.2797832-.0011597.4145508 40.2550058-9.2797832z"/></g><path d="m23.7195282 28.2740402-.0163803 5.7758332 5.7751884-1.3419724.0163803-5.7758293z" fill="#ed5d71"/><path d="m24.4529133 28.1036243-.0163803 5.7758313 5.7751884-1.3419686.0163803-5.7758312z" fill="#e3e7f0"/><g><path d="m8.7447815 31.7536697-.0163746 5.7761002-7.7284108-11.081255.0163753-5.7760982z" fill="#5faf5f"/></g></g><g><g><g><g enable-background="new"><g><path d="m45.2162895 21.0568409-.0172729 6.0925503-13.6169987 7.9133339.0172729-6.0925503z" fill="#47a047"/></g><g><path d="m31.5992908 28.9701748-.0172729 6.0925503-28.8806918-16.6742764.0172725-6.0925493z" fill="#47a047"/></g><g fill="#77cb77"><path d="m2.709347 15.5682859 28.8807237 16.6657916.000866-.311821-28.8807247-16.6657925z"/><path d="m2.7113471 14.8469019 28.8807244 16.6657915.0009194-.311388-28.8807247-16.6662254z"/><path d="m31.5993156 28.9701176-28.8807244-16.6744423-.0010812.3875055 28.8807242 16.6657934z"/><path d="m2.7013459 18.3885174 28.8806701 16.6740093.0007038-.2551651-28.880671-16.6657925z"/><path d="m2.7052383 17.010622 28.880724 16.6657925.0008659-.3113899-28.8807249-16.6657925z"/><path d="m2.7031841 17.7315731 28.880724 16.6662273.0008659-.3118248-28.880671-16.6657905z"/><path d="m2.7072926 16.289238 28.8807239 16.6662254.0008659-.311821-28.8807249-16.6657934z"/><path d="m31.5970993 29.7585373-28.8807785-16.6657934-.000865.3118219 28.8807242 16.6653595z"/><path d="m2.7143204 13.8141279-.0009188.311389 28.8807241 16.6657925.0009194-.3113881z"/></g><g><path d="m20.5539989 22.5931721-.0172729 6.0925503-5.1331844-2.9635888.0172729-6.0925483z" fill="#d3dbea"/></g><g fill="#e34454"><path d="m14.8767452 19.3153286-.0172729 6.0925484.5440693.3142566.0172729-6.0925483z"/><path d="m20.5552063 22.5937328-.017271 6.0925503.5440692.3142548.0172711-6.0925484z"/></g><g><path d="m45.2162895 21.0568409-13.6169987 7.9133339-28.8806922-16.6742754 13.6169975-7.9133344z" fill="#47a047"/></g></g></g><g><g enable-background="new"><g><path d="m30.9253845 23.828289c.1484833.0857258.196497.1806583.1389599.2878036-.0468121.1070671-.1679192.2142868-.3628292.3275547-.1949081.1132698-.3847427.1867485-.5694294.2142143-.179657.0306988-.3436832.0031853-.4921665-.0825424-.1431465-.0826454-.1912041-.177578-.1440868-.2847977.0522671-.1102123.1677303-.2203369.3626404-.3336048.1897812-.1102886.3849525-.1806889.5696182-.2081661.1900768-.0306224.3541469-.003107.4972934.0795384z" fill="#96d696"/></g><g><path d="m31.4607544 24.1314201c-.046545.1621723-.1989746.324461-.4676304.480587-.2737846.1591072-.5534592.2479286-.8281326.2724285-.2798443.0274773-.5391216-.0245457-.7777138-.1622982-.2332764-.1346817-.3292522-.2877636-.2827072-.4499359.0413971-.1591816.1991177-.3184147.4729023-.47752.2686558-.156126.5430393-.2480049.8228607-.2754955.2801075-.0276566.5392666.0305939.772543.1652756.2385921.1377506.3346862.2846069.287878.4469585zm-1.3286686.5264416c.1846867-.0274658.3745213-.1009445.5694294-.2142143.19491-.1132679.3160172-.2204876.3628292-.3275547.0575371-.1071453.0095234-.2020779-.1389599-.2878036-.1431465-.0826454-.3072166-.1101608-.4972935-.0795383-.1846657.0274773-.379837.0978775-.5696182.2081661-.19491.1132679-.3103733.2233925-.3626404.3336048-.0471172.1072197.0009403.2021523.1440868.2847977.1484834.0857276.3125096.1132411.4921666.0825423" fill="#4c5671"/></g><g><path d="m32.6326866 24.8140011c.325531.1879463.0995026.427412-.2238884.6153469-.3266525.1898289-.7339497.3208389-1.0615768.1316833-.3228569-.1864014-.1060333-.4297733.2185535-.6184025.1897831-.1102886.3849106-.1807137.5695972-.2081776.1900979-.0306109.3541451-.0031089.4973145.0795499z" fill="#96d696"/></g><g><path d="m32.700428 25.5977192c-.4870987.2830696-1.1040554.3998413-1.6058464.1101303-.5011177-.28932-.3096123-.6370258.1901722-.9274693.2686558-.156126.5430164-.2480183.8228588-.2754955.2801323-.0276432.5392685.0305939.7725677.1652889.4993134.2882786.3167992.6389828-.1797523.9275456zm-.8610611.0458412c.1846657-.0274773.3745232-.1009445.5694313-.2142124.3235321-.1880169.5493507-.4274406.2238884-.6153469-.1431694-.0826588-.3072166-.1101608-.4973145-.0795498-.1846867.0274639-.3798141.0978889-.5695972.2081776-.3245888.1886311-.5414104.4320011-.2185535.6184025.1484394.0857009.3124885.1132278.4921455.082529" fill="#4c5671"/></g></g><g><path d="m39.4596901 20.8711433c.3870621.2234707.3889542.5847797.0045662.8081608-.3846703.2235489-1.008152.2234669-1.3952141-.0000038-.3870468-.2234592-.3892212-.5846043-.0045509-.8081512.3843879-.2233811 1.0081558-.2234669 1.3951988-.0000058z" fill="#47a047"/></g><g><path d="m35.3505554 18.4987335c.3817444.2203979.3836327.5817089-.0007553.80509-.3846703.223547-1.008152.2234669-1.3898926.003067-.3870621-.2234707-.3892403-.5846138-.0045662-.8081608.3843842-.223381 1.008152-.2234669 1.3952141.0000038z" fill="#5faf5f"/></g><g><path d="m37.4024811 19.6834126c.3870468.2234612.3889351.5847702.0045471.8081512-.3846703.223547-1.008152.2234669-1.3951988.0000057-.3817558-.2204075-.383934-.5815525.0007401-.8050995.3843841-.223381 1.0081519-.2234668 1.3899116-.0030574z" fill="#47a047"/></g><g><path d="m30.038662 23.0782719-1.7227383 1.0011444-.2810059-.1622391 1.4646683-.8511734-.3499355-.2020359.2580662-.1499729z" fill="#4c5671"/></g><g enable-background="new"><g><path d="m27.4975681 13.1715469c-2.2529049-.5759792-5.3151951-.1651411-7.5337734 1.124156-2.2225876 1.2916269-2.9197712 3.0646601-1.9177608 4.3669176l-10.898552-6.292283c-.6468382-.3734522-.655499-.9826736-.0076065-1.3591871l7.1112823-4.1326261c.647892-.376514 1.6996746-.3734884 2.3465118-.0000362zm-15.002984-.0634279c1.5004902.8663082 3.9209929.8662977 5.4119711-.000165 1.4906712-.8662834 1.4827805-2.2683287-.0177097-3.1346369-1.5004902-.8663073-3.9209919-.8662968-5.411664-.0000124-1.4909783.8664618-1.4830867 2.2685071.0174026 3.1348143" fill="#96d696"/></g><g><path d="m17.8888721 9.9733152c1.5004997.8663139 1.5083733 2.2683611.0176983 3.1346474-1.490963.8664532-3.9114695.8664742-5.4119692.0001602s-1.5083742-2.2683611-.0174122-3.1348143c1.4906769-.8662862 3.9111834-.8663081 5.4116831.0000067z" fill="#47a047"/></g><g><path d="m28.9024582 13.726388c.4132023.2385635.7339287.5134583.9648705.8133268 1.00457 1.3047295.3053493 3.0798912-1.9132328 4.3691902-2.2225819 1.2916241-5.2812881 1.7012253-7.5356293 1.1234283-.5187511-.1329651-.9949856-.3181953-1.4086018-.5569973-.4126301-.2382317-.7332096-.5130424-.96381-.8127155-1.0020123-1.3022575-.3048401-3.0752926 1.9177418-4.3669167 2.2185822-1.2892981 5.2808838-1.7001352 7.5337982-1.124155.5177803.1324053.99263.3168364 1.4048634.5548392z" fill="#47a047"/></g><g><path d="m40.7647705 20.8313713c.652153.3765202.6608162.9857426.0129242 1.3622551l-7.1112823 4.1326256c-.647892.3765144-1.6996765.3734894-2.3518295-.0030308l-10.8961259-6.2908821c2.2543221.5777874 5.3130341.1681843 7.5356216-1.1234436 2.2185783-1.2892971 2.9177952-3.064456 1.9132214-4.3691826zm-8.892498 5.0387631c.2746964-.0244865.5543709-.113308.8281555-.2724152.4965401-.2885571.6790733-.6392612.1797523-.9275455-.2332993-.1346951-.4924355-.1929321-.7725677-.1652889-.2798424.0274773-.554203.1193695-.8228588.2754955-.499794.2904472-.6912842.6381531-.1901722.9274693.2385922.1377524.4978695.1897754.7776909.1622848m-1.7072811-.9856987c.2746735-.0244999.554348-.1133213.8281326-.2724285.2686558-.156126.4210854-.3184147.4676304-.480587.0468082-.1623516-.0492859-.3092079-.287878-.4469585-.2332764-.1346817-.4924355-.1929321-.772543-.1652756-.2798214.0274906-.5542049.1193695-.8228607.2754955-.2737846.1591053-.4315052.3183384-.4729023.47752-.046545.1621723.0494308.3152542.2827072.4499359.2385922.1377525.4978695.1897754.7777138.1622982m7.9040279-3.2051354c.3870544.223465 1.0105591.2235508 1.3952255.0000057.3843842-.2233791.3824844-.5846996-.00457-.8081646-.3870544-.2234669-1.0108185-.2233734-1.3952026.0000057-.3846703.2235451-.3825035.5846882.0045471.8081532m-4.1091423-2.3724155c.3817596.2204094 1.0052414.2204819 1.3899078-.0030632.3843842-.2233791.3825035-.5846882.0007439-.8050976-.3870506-.223465-1.0108185-.2233734-1.3952026.0000076-.3846665.2235451-.3825035.5846882.0045509.8081532m2.0526695.3795814c-.3846703.2235451-.3825035.5846882-.0007439.8050976.3870544.223465 1.0105324.2235394 1.3952026-.0000057.3843842-.2233791.3825035-.5846882-.0045509-.8081532-.3817596-.2204094-1.0055236-.2203178-1.3899078.0030613m-7.6966533 4.3929444 1.7227383-1.0011482-.6309376-.3642712-.2580738.1499767.3499374.2020359-1.4646645.8511696z" fill="#96d696"/></g></g></g><g><g><path d="m34.1709976 14.6798391-13.6169987 7.913333-5.1331844-2.9635868 13.6129189-7.9157467z" fill="#e3e7f0"/></g><g fill="#ed5d71"><path d="m28.4937305 11.4021473-13.6169853 7.9131813.5440693.3142567 13.6129303-7.9156142z"/><path d="m34.7072906 14.9895372-.5363121-.3097963-13.6169872 7.9135857.5452843.3146629z"/></g></g></g><g fill="#5faf5f"><path d="m45.2255325 24.3294525-13.6169967 7.9046822-.000866-.3118191 13.6169968-7.904686z"/><path d="m45.2235336 23.6080666-13.6169986 7.9046859-.0009194-.3113899 13.6169987-7.905117z"/><path d="m31.5992908 28.9701748 13.6169987-7.9133339.0010796.3875065-13.6169968 7.904684z"/><path d="m45.2335358 27.149683-13.6169453 7.9129009-.0007038-.2551651 13.6169433-7.904684z"/><path d="m45.229641 25.7717876-13.6169968 7.9046841-.0008659-.3113899 13.6169967-7.9046822z"/><path d="m45.2316971 26.4927387-13.6169987 7.905119-.0008659-.311821 13.6169452-7.904686z"/><path d="m45.2275887 25.0504036-13.6169987 7.905117-.000866-.311821 13.6169987-7.9046859z"/><path d="m31.6015072 29.7585945 13.6170521-7.9046841.0008659.311821-13.6169987 7.904253z"/><path d="m45.2205582 22.5752945.0009193.311388-13.6169968 7.904686-.0009193-.3113899z"/></g></g><g fill="#47a047"><path d="m8.7321959 36.1975327-7.7284543-11.0634747-.0012207.4326172 7.7284543 11.0634746z"/><path d="m8.742938 32.3899155-7.7283932-11.063963-.0012207.4331055 7.7283932 11.0634747z"/><path d="m8.7343321 35.4358139-7.7284542-11.0629864-.0012208.4326172 7.7284543 11.0634747z"/><path d="m8.7447691 31.7536869-7.7283932-11.081543-.0009155.3251953 7.7284542 11.0634747z"/><path d="m8.7364683 34.6745834-7.7283932-11.0634746-.0012207.4326172 7.7283932 11.0634746z"/><path d="m8.7386656 33.9128647-7.7284543-11.0634747-.0012207.4326172 7.7284543 11.0634747z"/><path d="m8.7408018 33.1511459-7.7284542-11.0634746-.0012207.4331054 7.7284542 11.0629864z"/><path d="m8.7299986 36.9587631-7.7283932-11.0624981-.0012207.4321289 7.7283932 11.0634747z"/></g></g><g><g><g><g><path d="m30.1553459 39.8395309-.0031147 1.0115433c0-.7159538-.4699802-1.4255219-1.4099236-1.9671593-.9368458-.5414848-2.1600304-.8091087-3.383215-.8091087-1.2231865-.0031929-2.4463902.2676239-3.3770046.8091087-.9243851.5384483-1.388134 1.2419357-1.388134 1.9452744l.0030956-1.0145836c0-.7065277.4637699-1.406826 1.3881531-1.9452705.9306164-.5416374 2.1507034-.8124542 3.3769855-.8124542 1.2232037.0031891 2.4463882.2708168 3.383234.8124542.9430582.5446777 1.4130403 1.2574348 1.4099237 1.9701957z" fill="#efa143"/></g><g><path d="m28.7460155 38.3139305c1.8719273 1.0807571 1.8817978 2.8338432.0220318 3.9146194-1.8618031 1.0819626-4.8883457 1.081974-6.7602711.0012169-1.8739147-1.0819054-1.8837891-2.8349915-.021986-3.916954 1.8597661-1.0807762 4.8863125-1.0807877 6.7602253.0011177z" fill="#ffdd94"/></g><g><path d="m31.1092186 39.8719673-.0030842.7903786c-.0023899.8443298-.5569897 1.6873779-1.6648922 2.3312225-2.2324467 1.2973557-5.8612518 1.2961197-8.106081.0000648-1.1312275-.6531143-1.6964874-1.5101738-1.6940613-2.3658371l.0030785-.7903748c-.0024242.8556633.5628357 1.7127228 1.6940632 2.3658371 2.2448292 1.2960548 5.8736343 1.2972908 8.106081-.0000648 1.1079025-.6438445 1.6625023-1.4868926 1.664896-2.3312263z" fill="#efa143"/></g><g><path d="m29.4178314 37.5079155c2.2448273 1.296051 2.2566471 3.3992538.0264912 4.6952782-2.2324467 1.2973557-5.8612518 1.2961197-8.106081.0000648-2.2469597-1.2972832-2.2609539-3.3992157-.0285091-4.6965714 2.2301559-1.2960281 5.8611373-1.2960548 8.1080989.0012284zm-7.4100628 4.2778473c1.8719254 1.0807571 4.8984661 1.0807419 6.7602692-.0012169 1.8597698-1.08078 1.8498974-2.8338623-.022028-3.9146194-1.8739166-1.0819054-4.9004574-1.0818977-6.7602272-.0011177-1.861803 1.0819625-1.8519287 2.8350486.021986 3.916954z" fill="#febb61"/></g></g></g><g><g fill="#efa143"><path d="m24.7938995 41.368351 1.6702843-.9728508v.3764153l-1.6702843.9728508-.3854332-.229435-.0275593-.816906c-.0091286-.1653557-.0183163-.2845535-.0458755-.3764153-.0183163-.0824547-.0734329-.146534-.1559982-.1926918-.0826206-.0457039-.1651859-.0640793-.2753086-.0640793-.1009941 0-.201931.0183754-.2844963.0640793-.0459309.0277863-.0734348.0551186-.1009941.0918655v.3396683l-.6699276.1008263c-.0458755-.1008263-.0550632-.192688-.0550632-.2751427v-.3764153c0 .0918655.0183735.1832809.0550632.2751427l.624052-.0824509v-.2020988c0-.1097908.0550632-.1832809.1468697-.2473602.0825653-.046154.1835022-.0645294.2844963-.0645294.1101227 0 .192688.0183754.2753086.0645294.0825653.0546684.137682.1191978.1651859.2016525.0183716.0824509.0275593.2020988.0366879.3670044l.0275593.8169098z"/><path d="m25.6565723 39.0462303v-.3759651c0-.0734901.0550632-.1469803.1651859-.2110634.1560555-.0918617.3487434-.1191978.5689926-.0734901.2203026.036747.4497356.1286087.6883011.2661819.2386189.1375694.394619.2661781.4588661.3943367.0275593.0461578.036747.082901.036747.119648v.3759651c0-.0367432-.0091877-.0824509-.036747-.1191978-.0642471-.1281586-.2202473-.2567673-.4588661-.3943405-.2385654-.1380157-.4679985-.2294312-.6883011-.2661781-.2202492-.046154-.4129372-.0183716-.5689926.0734901-.1101226.0546722-.1651859.1281623-.1651859.2106132z"/><path d="m28.2629662 39.1107597v.3764153c0 .1832771-.1376839.3575935-.4129925.5135384-.3303719.192688-.6883011.2661781-1.0737343.238842-.3854885-.0367432-.7709217-.1653519-1.1380386-.3764153-.3762474-.2200241-.5873089-.4404945-.651556-.6605186-.0091858-.0367432-.0183735-.0734901-.0183735-.1102333v-.3764153c0 .0367432.0091877.0734901.0183735.1102333.0642471.2200241.2753086.4404984.651556.6609688.3671169.2110596.7525501.339222 1.1380386.3759651.394619.036747.7433624-.0457077 1.0737343-.2383957.2753086-.155941.4129925-.3302574.4129925-.5139847z"/></g><g><g enable-background="new"><g><path d="m28.2477627 39.0100174c.0597038.2232742-.0734215.4296112-.3993473.6190186-.3262653.1896019-.6820412.2673874-1.0676708.2335205-.3914776-.0372162-.7717896-.1623993-1.140913-.375515-.3749981-.2165031-.5923843-.4363976-.6520615-.6596603-.0655518-.2266235.0675716-.4329567.393837-.6225586.3259258-.1894073.6817036-.2671928 1.0731812-.2299767.385603.0338516.7659645.1590347 1.1409626.3755417.3691234.2131119.58646.4330101.6520118.6596298zm-1.4049244.4431229c.2219887.0407066.4146843.0169525.5719681-.0744514.1569462-.0912056.1973476-.2029152.1266384-.3315353-.0709743-.128437-.2234268-.2570686-.4636517-.3957634-.2402496-.1387062-.468668-.229969-.6847839-.2672844-.2222805-.040535-.414999-.0167694-.5719452.0744362-.1572857.091404-.1976604.2030983-.1266613.3315506.0648117.1252441.223135.2572403.4633846.3959465.2402249.1386946.4627705.2265929.685051.2671012" fill="#febb61"/></g></g><g enable-background="new"><g><path d="m26.468338 40.3971252-1.6707306.9709206-.3925781-.2266541-.0219173-.815403c-.0068951-.165699-.0190678-.2876129-.043148-.3754272-.0236073-.0813179-.0765877-.145565-.1586246-.1929321-.082016-.0473518-.1698418-.0709801-.2750187-.0709686-.1051579.0000229-.2042427.0236778-.2857265.0710297-.1455956.0846138-.1857319.2301102-.1028385.4331055l-.6710548.0980911c-.0649395-.1659164-.0716209-.3113708-.0316086-.436451.0460339-.1285591.1681328-.2538109.3718414-.3721962.2037086-.1183815.4484997-.1859703.7405491-.1995659.2801876-.0134888.537447.0406418.765974.1725807.123045.0710411.2054863.158886.252697.2604141.0532284.0980568.0831585.2503471.0899868.4500351l.0205212.5039597.9370613-.5445595z" fill="#febb61"/></g></g></g></g></g><g><g><g><g><path d="m21.9222202 41.4908371-.0031147 1.0115433c0-.7159538-.4699821-1.4255219-1.4099236-1.9671593-.9368477-.5414848-2.1600323-.8091087-3.3832169-.8091087-1.2231846-.0031929-2.4463882.2676239-3.3770037.8091087-.9243841.5384445-1.388134 1.2419357-1.388134 1.9452744l.0030966-1.0145836c0-.7065277.463769-1.406826 1.3881531-1.9452705.9306154-.5416374 2.1507034-.8124542 3.3769855-.8124542 1.2232037.0031891 2.4463882.2708168 3.383234.8124542.9430582.5446777 1.4130384 1.2574348 1.4099237 1.9701957z" fill="#efa143"/></g><g><path d="m20.5128899 39.9652367c1.8719254 1.0807571 1.8817978 2.8338432.0220299 3.9146194-1.8618011 1.0819626-4.8883438 1.081974-6.7602701.0012169-1.8739147-1.0819054-1.8837881-2.8349915-.021987-3.916954 1.8597669-1.0807801 4.8863124-1.0807877 6.7602272.0011177z" fill="#ffdd94"/></g><g><path d="m22.8760929 41.5232735-.0030842.7903786c-.0023899.8443298-.5569897 1.6873779-1.6648941 2.3312225-2.2324448 1.2973557-5.8612509 1.2961197-8.1060801.0000648-1.1312275-.6531143-1.6964874-1.5101738-1.6940613-2.3658371l.0030794-.7903748c-.0024252.8556633.5628357 1.7127228 1.6940622 2.3658371 2.2448292 1.2960548 5.8736353 1.2972908 8.106082-.0000648 1.1079026-.6438446 1.6625024-1.4868927 1.6648961-2.3312263z" fill="#efa143"/></g><g><path d="m21.1847038 39.1592216c2.2448292 1.296051 2.256649 3.3992538.0264931 4.6952782-2.2324467 1.2973557-5.8612528 1.2961197-8.106082.0000648-2.2469606-1.2972832-2.2609539-3.3992195-.0285082-4.6965752 2.230156-1.2960242 5.8611374-1.2960509 8.1080971.0012322zm-7.4100609 4.2778473c1.8719254 1.0807571 4.8984661 1.0807419 6.7602673-.0012169 1.8597717-1.08078 1.8498974-2.8338623-.022028-3.9146194-1.8739147-1.0819054-4.9004555-1.0818977-6.7602262-.0011177-1.8618021 1.0819588-1.8519287 2.8350487.0219869 3.916954z" fill="#febb61"/></g></g></g><g><g fill="#efa143"><path d="m17.2182579 42.7842369.5139294-.2939644v.3674546l-.5139294.3024749-1.9272222-1.1193847-.4496813.2661781-.4496813-.2661781v-.3670044l.4496813.2567672.4496813-.2567672z"/><path d="m19.2280998 42.0224419c-.3211861.192688-.6883011.2661819-1.0737343.2383957-.3854332-.0367432-.7617359-.1649055-1.1379833-.3764114-.3763027-.2200241-.59655-.4400482-.6516113-.6605186-.0091877-.036747-.0183182-.0734901-.0183182-.1102371v-.3670045c0 .0273361.0091305.0640793.0183182.1008263.0550613.2204704.2753086.4404945.6516113.660965.3762474.2110634.7525501.3396683 1.1379833.3759689.3854332.0277824.7525482-.0457077 1.0737343-.229435.2844944-.1649055.4129925-.339222.4129925-.5229492v.3764153c0 .183277-.1284981.3580436-.4129925.5139846z"/><path d="m17.0347557 41.0679626v-.3670044c0-.082901.0641918-.1563911.165184-.2204704.1651859-.0918655.3578758-.1191978.5689926-.0734901.2202473.0367432.458868.1286087.6883011.2572136.2477493.146534.394619.2751427.4680538.4037514.0275021.0457077.0366898.0824547.0366898.1191978v.3670044c0-.0367432-.0183735-.0730438-.0366898-.109787-.0734348-.1286087-.2294331-.2661781-.4680538-.4041977-.2294331-.1375694-.4680538-.2200241-.6883011-.2661781-.2202473-.036747-.4038067-.0089645-.5689926.082901-.1101227.0640793-.165184.1375694-.165184.2110595z"/></g><g><g enable-background="new"><g><path d="m19.6306572 41.026432c.0593643.2234421-.0678864.4331665-.3995018.6258812-.3262405.1895905-.687891.2639847-1.0735207.2301445-.3856525-.0338516-.7659416-.1590233-1.1409626-.3755417-.3749962-.2165031-.5923347-.4363747-.6520119-.6596336-.0597038-.2232742.0734196-.4296074.399662-.6191978.3316154-.1927147.6873932-.2704964 1.0733604-.2368279.3856277.0338364.7659168.159008 1.140913.375515.375023.2165184.5923597.4363861.6520616.6596603zm-1.4050808.4499855c.2219906.0407066.4088116.0135651.5660973-.0778389.1629734-.0947113.2089081-.2028313.132534-.3281593-.071022-.128437-.2236328-.2637558-.4638824-.402462-.2343521-.1353035-.4684601-.223259-.6904259-.2639771-.2166138-.0438309-.4031448-.0168839-.5661201.0778275-.1572857.091404-.2035103.1997185-.1325111.3281708.0767136.1251297.2293243.2604485.4636745.395752.2402496.1387061.4743594.2266616.6906337.270687" fill="#febb61"/></g></g><g enable-background="new"><g><path d="m17.7348461 42.4879265-.5122719.2977028-1.9336118-1.1163712-.4481602.2604408-.4511709-.2604827.960433-.5581437z" fill="#febb61"/></g></g></g></g></g></g></svg>